<svg width="840" height="334" viewBox="0 0 840 334" fill="none" xmlns="http://www.w3.org/2000/svg">
<g clip-path="url(#clip0_19_265)">
<path d="M707.079 175.713C719.102 170.222 728.718 160.546 734.134 148.489C739.551 136.433 740.398 122.818 736.518 110.183C732.639 97.5473 724.297 86.7539 713.048 79.8143C701.799 72.8747 688.41 70.2624 675.377 72.4644C662.344 74.6664 650.557 81.5324 642.212 91.7825C633.867 102.033 629.535 114.968 630.021 128.176C630.508 141.385 635.782 153.965 644.859 163.573C653.936 173.181 666.196 179.161 679.356 180.397C688.848 181.289 698.407 179.674 707.079 175.713ZM652.885 57.3031C670.139 49.4316 689.722 48.3326 707.748 54.2241C725.775 60.1156 740.929 72.5672 750.204 89.1092C759.479 105.651 762.199 125.075 757.822 143.528C753.446 161.981 742.294 178.115 726.578 188.731L737.472 212.532L705.881 227.184L693.789 201.04C675.87 203.287 657.738 199.045 642.675 189.081C627.613 179.117 616.614 164.091 611.671 146.72C606.728 129.35 608.167 110.784 615.726 94.3827C623.286 77.9811 636.467 64.8277 652.885 57.3031Z" fill="#2E3052"/>
<path d="M705.553 228.981L739.594 213.186L728.701 189.221C744.135 178.484 755.112 162.475 759.565 144.208C764.018 125.942 761.641 106.677 752.88 90.0415C744.119 73.4058 729.579 60.5465 711.997 53.8844C694.415 47.2224 675.004 47.2171 657.419 53.8695C639.834 60.522 625.287 73.3733 616.516 90.0042C607.746 106.635 605.358 125.898 609.801 144.167C614.244 162.436 625.213 178.451 640.641 189.197C656.069 199.942 674.894 204.677 693.57 202.511L705.553 228.981ZM735.999 211.879L706.86 225.386L694.932 199.569H693.951C676.306 201.916 658.406 197.839 643.518 188.084C628.629 178.329 617.744 163.545 612.849 146.431C607.955 129.317 609.377 111.014 616.857 94.8616C624.336 78.7092 637.375 65.7848 653.592 58.4468C670.539 50.7126 689.774 49.6325 707.481 55.4209C725.188 61.2093 740.071 73.4431 749.177 89.6944C758.283 105.946 760.947 125.027 756.639 143.15C752.332 161.274 741.367 177.116 725.923 187.532L724.997 188.131L735.999 211.879ZM684.365 182.031C692.392 182.032 700.324 180.305 707.622 176.966C712.263 174.794 716.602 172.03 720.531 168.741C727.985 162.453 733.666 154.325 737.01 145.163C740.353 136.002 741.244 126.125 739.592 116.513C737.941 106.901 733.805 97.8885 727.595 90.3685C721.385 82.8484 713.317 77.0825 704.191 73.6429C697.318 71.0527 690 69.8537 682.66 70.1155C675.32 70.3773 668.105 72.0948 661.435 75.168C650.218 80.2833 641.006 88.9606 635.229 99.8512C629.453 110.742 627.435 123.236 629.491 135.391C631.547 147.546 637.561 158.682 646.598 167.067C655.635 175.452 667.188 180.617 679.463 181.759C680.934 182.086 682.622 182.086 684.365 182.086V182.031ZM706.479 174.515C694.212 180.139 680.268 180.897 667.463 176.637C654.659 172.377 643.949 163.416 637.496 151.565C631.043 139.713 629.329 125.854 632.699 112.787C636.07 99.7208 644.275 88.4203 655.655 81.169C667.036 73.9176 680.744 71.2558 694.011 73.7214C707.279 76.1869 719.116 83.5959 727.132 94.4517C735.147 105.308 738.744 118.801 737.195 132.206C735.647 145.612 729.068 157.929 718.788 166.672C715.037 169.802 710.901 172.438 706.479 174.515Z" fill="#262838"/>
<path d="M700.107 230.017L735.347 305.888L779.791 285.736L744.443 209.483L737.798 212.533L706.207 227.184L700.107 230.017Z" fill="#262838"/>
<path d="M734.584 307.685L781.534 286.389L744.987 207.685L698.2 229.471L734.584 307.685ZM778.157 285.027L736.163 304.09L701.904 230.67L743.734 211.28L778.157 285.027Z" fill="#262838"/>
<path d="M717.265 114.602L719.825 113.621C715.88 104.395 708.785 96.8714 699.806 92.392C690.827 87.9126 680.549 86.7692 670.805 89.1658L671.35 91.8347C680.463 89.4435 690.133 90.4318 698.573 94.6169C707.013 98.802 713.653 105.901 717.265 114.602Z" fill="#262838"/>
<path d="M836.618 257.565C836.786 257.612 836.934 257.712 837.04 257.85C837.145 257.989 837.203 258.158 837.203 258.333C837.203 258.507 837.145 258.676 837.04 258.815C836.934 258.954 836.786 259.054 836.618 259.1L760.438 276.575L756.801 277.427L717.815 286.35L599.013 259.1C598.845 259.054 598.697 258.954 598.591 258.815C598.485 258.676 598.428 258.507 598.428 258.333C598.428 258.158 598.485 257.989 598.591 257.85C598.697 257.712 598.845 257.612 599.013 257.565L716.167 230.685C717.251 230.43 718.38 230.43 719.463 230.685L756.772 239.21L760.409 240.062L836.618 257.565Z" fill="#263238"/>
<path d="M784.335 258.333C783 253.9 753.761 250.377 717.816 250.377C681.871 250.377 652.633 253.9 651.297 258.333V314.083C651.297 314.331 651.347 314.578 651.443 314.807C651.539 315.036 651.679 315.244 651.856 315.419C652.034 315.593 652.244 315.731 652.475 315.824C652.705 315.916 652.952 315.962 653.201 315.958H782.545C782.794 315.962 783.041 315.916 783.272 315.824C783.502 315.731 783.712 315.593 783.89 315.419C784.067 315.244 784.208 315.036 784.304 314.807C784.4 314.578 784.449 314.331 784.449 314.083V258.333H784.335Z" fill="#263238"/>
<path opacity="0.2" d="M784.335 258.333C783 253.9 753.761 250.377 717.816 250.377C681.871 250.377 652.633 253.9 651.297 258.333V314.083C651.297 314.331 651.347 314.578 651.443 314.807C651.539 315.036 651.679 315.244 651.856 315.419C652.034 315.593 652.244 315.731 652.475 315.824C652.705 315.916 652.952 315.962 653.201 315.958H782.545C782.794 315.962 783.041 315.916 783.272 315.824C783.502 315.731 783.712 315.593 783.89 315.419C784.067 315.244 784.208 315.036 784.304 314.807C784.4 314.578 784.449 314.331 784.449 314.083V258.333H784.335Z" fill="white"/>
<path opacity="0.2" d="M840 258.333L833.806 259.754L760.439 242.932L756.802 242.08L717.816 233.072L601.856 259.668L595.661 258.248L716.168 230.6C717.252 230.345 718.381 230.345 719.464 230.6L756.773 239.125L760.41 239.977L840 258.333Z" fill="white"/>
<path d="M763.28 296.721V308.485H762.343L761.661 301.239L760.95 308.485H759.416L758.705 301.239L757.995 308.485H756.461L755.75 301.239L755.068 308.485H754.131V296.721C754.142 295.823 754.417 294.948 754.922 294.205C755.428 293.462 756.141 292.885 756.972 292.544V239.238L760.609 240.09V292.544C761.409 292.91 762.086 293.499 762.56 294.24C763.033 294.98 763.283 295.842 763.28 296.721Z" fill="#101646"/>
<path d="M676.097 326.923C676.097 327.045 546.886 327.149 387.531 327.149C228.176 327.149 98.9147 327.045 98.9147 326.923C98.9147 326.802 228.1 326.698 387.531 326.698C546.962 326.698 676.097 326.776 676.097 326.923Z" fill="#263238"/>
<path d="M567.09 207.814H512.7V213.216H567.09V207.814Z" fill="#263238"/>
<path d="M561.259 244.381H506.869V249.784H561.259V244.381Z" fill="#263238"/>
<path d="M577.082 168.446H522.692V173.849H577.082V168.446Z" fill="#263238"/>
<path d="M583.732 131.368H529.342V136.77H583.732V131.368Z" fill="#263238"/>
<path d="M549.596 281.156H495.206V286.558H549.596V281.156Z" fill="#263238"/>
<path d="M530.625 98.8071L482.007 326.898H491.121L539.849 99.1713L530.625 98.8071Z" fill="#263238"/>
<path d="M587.479 98.8071L538.87 326.898H547.975L596.703 99.1713L587.479 98.8071Z" fill="#263238"/>
<path d="M535.477 95.8413L586.331 326.898H594.728L544.338 95.8413H535.477Z" fill="#455A64"/>
<path d="M590.416 95.8413L641.27 326.898H649.667L599.285 95.8413H590.416Z" fill="#455A64"/>
<path d="M527.823 95.0088V99.8127H605.53V94.2717L527.823 95.0088Z" fill="#455A64"/>
<path d="M612.543 169.539H558.153V174.941H612.543V169.539Z" fill="#455A64"/>
<path d="M623.151 207.649H568.761V213.052H623.151V207.649Z" fill="#455A64"/>
<path d="M629.286 244.381H574.896V249.784H629.286V244.381Z" fill="#455A64"/>
<path d="M638.425 283.87H584.035V289.273H638.425V283.87Z" fill="#455A64"/>
<path d="M602.914 131.368H548.524V136.77H602.914V131.368Z" fill="#455A64"/>
<path d="M592.213 9.31015L592.315 42.582L579.656 43.1977L579.15 35.2288C579.15 35.2288 573.057 36.1739 571.782 31.4654C570.938 28.4564 571.175 5.21729 571.175 5.21729L592.213 9.31015Z" fill="#B78876"/>
<path d="M568.069 8.49511C569.006 10.4895 573.461 14.1228 573.461 14.1228L575.478 19.6638C577.225 18.259 579.571 18.3371 580.019 21.5021C580.339 23.7827 577.571 24.2422 577.571 24.2422C579.183 27.0518 580.272 29.3236 582.635 31.9944C585.166 34.8906 586.584 35.1768 589.335 35.2288H592.365C592.365 35.2288 598.559 29.9046 597.336 15.8918C596.112 1.87889 583.833 5.97176 580.922 2.46854C576.128 -3.23719 564.955 1.86155 568.069 8.49511Z" fill="#263238"/>
<path d="M576.212 1.01175C575.444 1.24776 574.701 1.56147 573.993 1.94825C573.153 2.42045 572.422 3.07328 571.85 3.86221C571.277 4.65115 570.877 5.55763 570.677 6.51981C570.477 7.48199 570.481 8.47725 570.689 9.43766C570.897 10.3981 571.305 11.3011 571.883 12.085C572.39 12.7338 572.955 13.3319 573.571 13.8713C573.36 13.8003 573.163 13.6917 572.989 13.5505C572.487 13.2005 572.042 12.7701 571.672 12.2758C571.028 11.4702 570.568 10.5257 570.328 9.51253C570.088 8.49933 570.073 7.44351 570.284 6.42359C570.496 5.40367 570.929 4.44591 571.55 3.62154C572.172 2.79718 572.967 2.12742 573.875 1.6621C574.405 1.37463 574.974 1.17005 575.563 1.0551C575.775 0.999331 575.995 0.984632 576.212 1.01175Z" fill="#455A64"/>
<path d="M577.689 6.84753C577.36 7.10681 577.013 7.34154 576.651 7.54992C575.849 8.12606 575.178 8.87464 574.685 9.74376C574.197 10.6199 573.908 11.5982 573.841 12.6053C573.848 13.0339 573.829 13.4626 573.782 13.8887C573.585 13.4926 573.497 13.0488 573.529 12.6053C573.504 11.5279 573.764 10.4637 574.281 9.52608C574.798 8.58848 575.553 7.8126 576.465 7.2811C576.825 7.01939 577.249 6.86893 577.689 6.84753Z" fill="#455A64"/>
<path d="M517.266 86.7884C519.95 86.7884 522.127 84.5522 522.127 81.7938C522.127 79.0353 519.95 76.7991 517.266 76.7991C514.581 76.7991 512.405 79.0353 512.405 81.7938C512.405 84.5522 514.581 86.7884 517.266 86.7884Z" fill="#3526E5"/>
<path d="M556.339 68.4226L550.246 84.4299L525.772 86.5544L525.266 86.4156C524.802 86.1034 524.253 85.7132 523.646 85.2363C523.113 84.819 522.654 84.3117 522.287 83.7362C521.856 83.102 521.494 82.4217 521.207 81.7071C521.203 81.6522 521.203 81.5972 521.207 81.5423C521.183 81.4355 521.143 81.3331 521.089 81.2388C521.026 81.1092 520.929 81.0002 520.809 80.924C520.689 80.8478 520.55 80.8074 520.409 80.8074C520.268 80.8074 520.13 80.8478 520.01 80.924C519.89 81.0002 519.793 81.1092 519.73 81.2388C519.485 81.8458 519.856 83.6841 521.105 85.5225C521.119 85.556 521.136 85.588 521.156 85.6179C522.371 87.5169 519.097 86.4156 517.899 86.0341C516.7 85.6525 512.945 84.6553 512.548 84.9502C511.966 85.3664 512.312 86.1034 513.51 86.459C514.709 86.8145 518.27 88.1239 518.059 88.7655C517.848 89.4072 511.772 87.3781 511.772 87.3781C511.772 87.3781 510.54 86.7365 510.27 87.4648C509.789 88.8002 516.396 90.4565 517.021 90.5952C517.46 90.6906 517.257 91.4016 516.785 91.2716C516.312 91.1415 510.768 89.1124 510.261 90.4565C509.881 91.4883 515.688 91.8699 516.624 92.9538C517.561 94.0377 512.244 92.1994 511.915 93.2053C511.789 93.5781 511.755 93.8729 514.945 94.4713C517.464 94.8221 519.999 95.0306 522.54 95.0956L523.257 95.1823V95.0869L552.693 94.7054C557.014 94.7054 560.583 93.9857 561.976 89.7714L567.039 74.163L556.339 68.4226Z" fill="#B78876"/>
<path d="M638.873 211.638L633.919 206.982L642.358 197.4L649.666 204.138L649.185 204.771C647 207.545 637.885 218.731 635.801 220.006C633.489 221.437 638.873 211.638 638.873 211.638Z" fill="#3526E5"/>
<g opacity="0.4">
<path d="M636.375 216.555C636.375 216.555 634.687 220.153 635.438 220.223C636.189 220.292 645.835 209.349 649.666 204.138L649.447 203.964L638.324 216.798C638.324 216.798 636.89 216.017 636.375 216.555Z" fill="white"/>
</g>
<path d="M649.574 203.791C649.538 203.856 649.495 203.917 649.447 203.973L649.059 204.467L647.599 206.279C646.358 207.797 644.611 209.878 642.637 212.124C640.662 214.37 638.831 216.364 637.489 217.795L635.885 219.469L635.438 219.919L635.278 220.067C635.32 220.004 635.368 219.946 635.421 219.893L635.843 219.425L637.413 217.691C638.729 216.243 640.552 214.222 642.527 211.994C644.502 209.765 646.257 207.658 647.515 206.184L649.017 204.406L649.422 203.921L649.574 203.791Z" fill="#263238"/>
<path d="M638.476 216.954C638.124 216.776 637.757 216.633 637.379 216.529C636.989 216.49 636.596 216.49 636.206 216.529C636.575 216.333 637.002 216.283 637.404 216.39C637.815 216.442 638.194 216.642 638.476 216.954Z" fill="#263238"/>
<path d="M639.565 212.835C639.359 212.886 639.145 212.886 638.94 212.835C638.603 212.774 638.333 212.696 638.341 212.653C638.546 212.602 638.76 212.602 638.966 212.653C639.303 212.705 639.573 212.792 639.565 212.835Z" fill="#263238"/>
<path d="M639.843 211.69C639.843 211.734 639.624 211.786 639.328 211.82C639.154 211.866 638.971 211.866 638.797 211.82C638.797 211.777 639.025 211.716 639.312 211.682C639.598 211.647 639.843 211.647 639.843 211.69Z" fill="#263238"/>
<path d="M639.396 210.381C639.396 210.381 639.261 210.658 639.016 210.936C638.771 211.213 638.561 211.421 638.527 211.387C638.493 211.352 638.662 211.109 638.906 210.832C639.151 210.554 639.37 210.346 639.396 210.381Z" fill="#263238"/>
<path d="M638.923 209.635C638.888 209.899 638.773 210.144 638.594 210.337C638.333 210.684 638.037 210.875 638.012 210.84C637.987 210.806 638.223 210.572 638.476 210.242C638.729 209.913 638.881 209.618 638.923 209.635Z" fill="#263238"/>
<path d="M638.467 212.401C638.318 212.635 638.133 212.843 637.919 213.017C637.694 213.21 637.454 213.383 637.202 213.537C637.053 213.637 636.891 213.716 636.721 213.771C636.618 213.813 636.503 213.813 636.4 213.771C636.348 213.739 636.306 213.693 636.277 213.638C636.249 213.583 636.236 213.521 636.24 213.459C636.334 213.119 636.541 212.823 636.824 212.623C637.107 212.422 637.449 212.328 637.792 212.358C637.994 212.372 638.19 212.431 638.366 212.531C638.493 212.601 638.552 212.653 638.543 212.661C638.301 212.558 638.045 212.493 637.784 212.471C637.504 212.46 637.228 212.536 636.991 212.687C636.698 212.856 636.483 213.136 636.392 213.468C636.392 213.632 636.527 213.693 636.687 213.641C636.841 213.584 636.991 213.515 637.134 213.433C637.384 213.288 637.623 213.126 637.851 212.947C638.239 212.618 638.442 212.384 638.467 212.401Z" fill="#263238"/>
<path d="M638.375 212.592C638.186 212.544 638.019 212.43 637.902 212.271C637.761 212.107 637.66 211.911 637.607 211.699C637.567 211.563 637.56 211.419 637.586 211.28C637.613 211.141 637.672 211.011 637.759 210.901C637.827 210.852 637.91 210.832 637.992 210.845C638.073 210.858 638.147 210.903 638.197 210.97C638.281 211.074 638.341 211.196 638.375 211.326C638.436 211.529 638.473 211.738 638.484 211.95C638.504 212.146 638.481 212.345 638.417 212.531C638.417 212.531 638.417 212.305 638.417 211.959C638.391 211.758 638.346 211.561 638.282 211.369C638.231 211.17 638.054 210.901 637.894 211.022C637.83 211.114 637.787 211.22 637.77 211.331C637.752 211.442 637.76 211.556 637.793 211.664C637.828 211.86 637.909 212.044 638.029 212.201C638.164 212.462 638.375 212.566 638.375 212.592Z" fill="#263238"/>
<path d="M646.814 201.632C646.814 201.632 646.552 201.883 646.215 202.36C645.785 202.986 645.531 203.721 645.481 204.484C645.436 205.247 645.599 206.007 645.953 206.678C646.232 207.199 646.485 207.467 646.459 207.485C646.39 207.437 646.327 207.378 646.274 207.311C646.117 207.136 645.979 206.944 645.86 206.739C645.467 206.056 645.282 205.268 645.329 204.476C645.387 203.679 645.682 202.919 646.173 202.299C646.316 202.11 646.477 201.936 646.654 201.779C646.7 201.722 646.754 201.673 646.814 201.632Z" fill="#263238"/>
<path d="M642.096 199.021C642.791 199.557 643.453 200.136 644.079 200.755C644.745 201.319 645.376 201.924 645.969 202.567C645.272 202.03 644.607 201.451 643.978 200.833C643.316 200.268 642.688 199.663 642.096 199.021Z" fill="#263238"/>
<path d="M644.569 207.91C644.267 208.464 643.898 208.976 643.472 209.435C643.078 209.923 642.627 210.36 642.13 210.736C642.13 210.736 642.687 210.112 643.354 209.331C644.02 208.551 644.526 207.884 644.569 207.91Z" fill="#263238"/>
<path d="M646.215 206.028C646.257 206.028 646.299 206.201 646.384 206.392C646.468 206.583 646.561 206.739 646.527 206.765C646.493 206.791 646.342 206.678 646.24 206.453C646.139 206.227 646.173 206.028 646.215 206.028Z" fill="#263238"/>
<path d="M645.97 204.519C645.97 204.519 646.055 204.675 646.071 204.866C646.088 205.057 646.071 205.213 646.012 205.213C645.953 205.213 645.928 205.065 645.92 204.874C645.911 204.684 645.97 204.528 645.97 204.519Z" fill="#263238"/>
<path d="M646.484 203.149C646.484 203.149 646.392 203.305 646.316 203.496C646.24 203.687 646.223 203.851 646.181 203.851C646.138 203.851 646.079 203.661 646.181 203.435C646.282 203.21 646.459 203.106 646.484 203.149Z" fill="#263238"/>
<path d="M646.932 202.256C646.932 202.256 646.932 202.369 646.932 202.473C646.932 202.577 646.823 202.655 646.789 202.646C646.755 202.637 646.747 202.525 646.789 202.421C646.831 202.317 646.89 202.239 646.932 202.256Z" fill="#263238"/>
<g opacity="0.3">
<path d="M646.249 201.189L636.797 209.687L635.615 208.603L644.164 198.961L646.249 201.189Z" fill="black"/>
</g>
<path d="M598.872 239.699L597.766 232.9L610.155 230.672L611.843 240.601L611.083 240.791C607.707 241.598 593.817 244.641 591.412 244.338C588.762 244.017 598.872 239.699 598.872 239.699Z" fill="#3526E5"/>
<g opacity="0.4">
<path d="M593.96 241.997C593.96 241.997 590.458 243.731 591.023 244.295C591.589 244.858 605.732 242.3 611.876 240.618L611.809 240.341L595.336 243.445C595.336 243.445 594.694 241.945 593.96 241.997Z" fill="white"/>
</g>
<path d="M612.003 240.297L611.792 240.358L611.184 240.505L608.956 241.008C607.066 241.424 604.441 241.953 601.547 242.473C598.652 242.994 596.002 243.41 594.087 243.687L591.817 243.991L591.2 244.069C591.13 244.077 591.06 244.077 590.99 244.069H591.2L591.808 243.965L594.07 243.609C595.977 243.306 598.61 242.881 601.513 242.361C604.416 241.84 607.041 241.32 608.931 240.939L611.176 240.479L611.783 240.366C611.854 240.335 611.927 240.312 612.003 240.297Z" fill="#263238"/>
<path d="M595.377 243.678C595.207 243.316 595 242.974 594.761 242.656C594.486 242.369 594.18 242.116 593.85 241.901C594.257 241.987 594.621 242.217 594.879 242.552C595.171 242.854 595.347 243.254 595.377 243.678Z" fill="#263238"/>
<path d="M598.711 241.077C598.711 241.077 598.466 240.921 598.238 240.661C598.01 240.401 597.85 240.167 597.875 240.132C597.901 240.098 598.12 240.297 598.356 240.557C598.593 240.817 598.711 241.077 598.711 241.077Z" fill="#263238"/>
<path d="M599.614 240.357C599.614 240.357 599.377 240.288 599.124 240.132C598.871 239.976 598.703 239.811 598.719 239.777C598.736 239.742 598.964 239.837 599.209 240.002C599.453 240.167 599.639 240.314 599.614 240.357Z" fill="#263238"/>
<path d="M600.044 239.039C599.85 239.153 599.634 239.221 599.412 239.239C599.199 239.306 598.973 239.321 598.753 239.282C598.947 239.168 599.164 239.1 599.386 239.083C599.599 239.015 599.825 239.001 600.044 239.039Z" fill="#263238"/>
<path d="M600.12 238.155C599.93 238.335 599.692 238.453 599.437 238.493C599.187 238.575 598.919 238.575 598.669 238.493C598.906 238.412 599.148 238.351 599.394 238.311C599.63 238.232 599.873 238.18 600.12 238.155Z" fill="#263238"/>
<path d="M598.095 240.045C597.839 240.135 597.571 240.182 597.301 240.184C597.006 240.194 596.709 240.179 596.416 240.141C596.24 240.122 596.067 240.082 595.901 240.019C595.848 240.002 595.8 239.973 595.758 239.936C595.716 239.899 595.681 239.854 595.656 239.803C595.635 239.744 595.63 239.681 595.642 239.62C595.654 239.558 595.682 239.502 595.724 239.456C596.001 239.247 596.341 239.143 596.684 239.164C597.028 239.184 597.353 239.328 597.605 239.569C597.754 239.711 597.875 239.882 597.959 240.071C597.994 240.138 598.012 240.213 598.01 240.288C597.889 240.048 597.726 239.834 597.529 239.655C597.316 239.471 597.055 239.357 596.778 239.326C596.615 239.297 596.448 239.302 596.286 239.343C596.125 239.383 595.974 239.457 595.842 239.56C595.732 239.673 595.842 239.82 595.96 239.881C596.116 239.937 596.277 239.974 596.441 239.993C596.719 240.046 597.002 240.072 597.285 240.071C597.791 240.071 598.095 240.019 598.095 240.045Z" fill="#263238"/>
<path d="M597.867 240.123C597.735 239.971 597.666 239.772 597.673 239.568C597.663 239.351 597.703 239.134 597.791 238.935C597.84 238.803 597.919 238.685 598.022 238.591C598.125 238.498 598.248 238.431 598.382 238.398C598.465 238.402 598.543 238.439 598.601 238.5C598.659 238.561 598.692 238.642 598.694 238.727C598.699 238.862 598.673 238.995 598.618 239.117C598.546 239.319 598.447 239.508 598.323 239.681C598.226 239.851 598.09 239.994 597.926 240.097C597.926 240.097 598.061 239.924 598.239 239.62C598.34 239.448 598.422 239.265 598.483 239.074C598.568 238.875 598.584 238.554 598.382 238.554C598.179 238.554 598.011 238.814 597.918 238.996C597.832 239.174 597.786 239.37 597.783 239.568C597.792 239.756 597.82 239.942 597.867 240.123Z" fill="#263238"/>
<path d="M611.159 236.863C611.159 236.863 610.796 236.863 610.247 237.054C609.534 237.277 608.893 237.693 608.391 238.259C607.904 238.839 607.58 239.543 607.454 240.297C607.361 240.878 607.403 241.242 607.37 241.251C607.359 241.165 607.359 241.077 607.37 240.991C607.346 240.755 607.346 240.516 607.37 240.28C607.466 239.491 607.793 238.751 608.306 238.157C608.82 237.562 609.497 237.142 610.247 236.95C610.472 236.894 610.7 236.859 610.931 236.846C611.007 236.837 611.085 236.843 611.159 236.863Z" fill="#263238"/>
<path d="M608.973 231.791C609.206 232.646 609.39 233.514 609.522 234.392C609.709 235.25 609.845 236.118 609.927 236.993C609.694 236.138 609.511 235.27 609.378 234.392C609.195 233.533 609.06 232.665 608.973 231.791Z" fill="#263238"/>
<path d="M605.597 240.358C605.031 240.61 604.435 240.782 603.825 240.869C603.222 241.01 602.604 241.068 601.986 241.043C601.986 241.043 602.83 240.904 603.791 240.713C604.753 240.523 605.588 240.314 605.597 240.358Z" fill="#263238"/>
<path d="M607.994 239.924C607.994 239.924 607.994 240.115 607.902 240.314C607.809 240.514 607.843 240.696 607.792 240.704C607.741 240.713 607.699 240.514 607.792 240.28C607.885 240.045 607.994 239.898 607.994 239.924Z" fill="#263238"/>
<path d="M608.745 238.589C608.745 238.589 608.745 238.762 608.61 238.918C608.475 239.074 608.391 239.178 608.357 239.152C608.323 239.126 608.357 238.987 608.483 238.831C608.61 238.675 608.703 238.563 608.745 238.589Z" fill="#263238"/>
<path d="M609.96 237.817C609.96 237.86 609.792 237.895 609.623 237.99C609.454 238.086 609.336 238.216 609.302 238.19C609.269 238.164 609.302 237.973 609.547 237.852C609.792 237.73 609.969 237.774 609.96 237.817Z" fill="#263238"/>
<path d="M610.846 237.401C610.846 237.401 610.846 237.513 610.711 237.574C610.576 237.635 610.526 237.652 610.5 237.618C610.475 237.583 610.5 237.496 610.635 237.444C610.77 237.392 610.829 237.366 610.846 237.401Z" fill="#263238"/>
<g opacity="0.3">
<path d="M610.948 236.135L598.408 236.846L598.129 235.251L610.636 233.048L610.948 236.135Z" fill="black"/>
</g>
<path d="M561.74 45.7211L538.482 21.4414L537.975 18.84C537.874 18.3631 537.781 17.8255 537.688 17.2098C537.574 16.5036 537.574 15.7829 537.688 15.0766C537.811 14.1967 538.052 13.3386 538.406 12.5273C538.794 11.8249 538.169 10.9751 537.52 11.2699C536.87 11.5648 535.747 13.4638 535.503 16.0912C535.258 18.7186 533.081 15.2241 532.271 13.9841C531.46 12.7441 528.76 8.97202 528.194 8.92867C527.351 8.8593 527.165 9.7958 528 11.0098C528.836 12.2238 531.123 16.1259 530.481 16.5334C529.846 16.4203 529.191 16.5182 528.613 16.8128C528.035 17.1075 527.563 17.5837 527.266 18.1723C526.675 19.3343 526.026 20.9731 526.557 21.7275C527.709 23.1552 528.949 24.5049 530.27 25.7684L531.047 26.4534C531.047 26.4534 551.174 56.4215 555.52 57.4014C558.246 57.9997 600.425 61.5983 600.425 61.5983L603.606 49.6579L561.74 45.7211Z" fill="#B78876"/>
<path d="M526.397 21.19L528.549 23.3145C528.788 23.5746 529.075 23.7838 529.393 23.9302C529.549 23.9988 529.72 24.0206 529.887 23.993C530.055 23.9654 530.211 23.8894 530.338 23.7741C530.426 23.6511 530.484 23.5078 530.506 23.3567C530.528 23.2055 530.514 23.0511 530.465 22.907C530.346 22.6181 530.177 22.3537 529.967 22.1265L527.874 19.5251" fill="#B78876"/>
<path d="M527.823 19.5164C527.865 19.5164 528.27 19.8892 528.886 20.5829C529.232 20.9818 529.587 21.3894 529.95 21.8229C530.183 22.0699 530.384 22.3468 530.549 22.6467C530.649 22.8365 530.696 23.0509 530.686 23.2665C530.675 23.4821 530.608 23.6906 530.49 23.8694C530.344 24.0348 530.153 24.1502 529.942 24.1998C529.73 24.2495 529.509 24.231 529.308 24.1468C528.987 24.01 528.699 23.8029 528.464 23.5399L527.342 22.3606C526.709 21.6842 526.338 21.242 526.38 21.1899C526.814 21.4444 527.209 21.7629 527.553 22.1351L528.743 23.2364C528.942 23.451 529.184 23.6195 529.452 23.7306C529.568 23.7806 529.695 23.7941 529.818 23.7694C529.942 23.7447 530.055 23.6829 530.144 23.5919C530.208 23.4772 530.242 23.3471 530.242 23.2147C530.242 23.0823 530.208 22.9522 530.144 22.8375C529.999 22.5655 529.824 22.3122 529.621 22.0831L528.667 20.8257C528.321 20.4374 528.036 19.9955 527.823 19.5164Z" fill="#AA6550"/>
<path d="M527.924 19.6464L530.076 21.7708C530.314 22.0304 530.601 22.2371 530.92 22.3778C531.063 22.4606 531.229 22.4939 531.392 22.473C531.555 22.452 531.707 22.3779 531.826 22.2614C531.945 22.1449 532.025 21.9923 532.053 21.826C532.081 21.6596 532.057 21.4883 531.984 21.3373C531.869 21.0454 531.703 20.7778 531.494 20.5482L529.401 17.9468" fill="#B78876"/>
<path d="M529.367 17.9641C529.768 18.2704 530.126 18.6323 530.431 19.0394L531.494 20.2707C531.732 20.5298 531.934 20.8216 532.093 21.1378C532.193 21.3277 532.241 21.542 532.23 21.7576C532.22 21.9732 532.152 22.1817 532.034 22.3605C531.889 22.5259 531.697 22.6413 531.486 22.691C531.275 22.7406 531.054 22.7221 530.853 22.638C530.532 22.5011 530.244 22.294 530.009 22.031L528.886 20.8257C528.513 20.4848 528.189 20.0906 527.924 19.655C528.357 19.9079 528.752 20.2233 529.097 20.5915L530.287 21.7015C530.487 21.9161 530.728 22.0846 530.996 22.1957C531.112 22.2435 531.239 22.2558 531.362 22.2312C531.485 22.2066 531.598 22.1461 531.688 22.057C531.753 21.9407 531.786 21.8092 531.786 21.6754C531.786 21.5417 531.753 21.4102 531.688 21.2939C531.543 21.0247 531.368 20.7744 531.165 20.5482L530.178 19.2475C529.843 18.8668 529.569 18.4335 529.367 17.9641Z" fill="#AA6550"/>
<path d="M529.604 18.3802L531.755 20.5047C531.989 20.769 532.278 20.9764 532.599 21.1117C532.743 21.1945 532.908 21.2278 533.071 21.2069C533.234 21.1859 533.386 21.1118 533.505 20.9953C533.624 20.8788 533.704 20.7262 533.732 20.5599C533.761 20.3935 533.736 20.2222 533.663 20.0711C533.545 19.7792 533.376 19.5118 533.165 19.2821C532.473 18.4149 531.772 17.5478 531.08 16.6807" fill="#B78876"/>
<path d="M531.047 16.6982C531.446 17.0027 531.804 17.3615 532.11 17.7648L533.173 19.0048C533.404 19.2522 533.602 19.529 533.764 19.8286C533.869 20.0186 533.918 20.2351 533.908 20.453C533.898 20.671 533.827 20.8814 533.705 21.0599C533.562 21.2257 533.372 21.3415 533.162 21.3912C532.951 21.4409 532.731 21.4221 532.532 21.3374C532.211 21.2006 531.923 20.9934 531.688 20.7304L530.557 19.5511C530.184 19.2119 529.863 18.8173 529.604 18.3805C530.034 18.6359 530.429 18.951 530.777 19.317L531.966 20.4269C532.164 20.6393 532.403 20.8076 532.667 20.9212C532.783 20.97 532.91 20.9829 533.033 20.9583C533.156 20.9336 533.269 20.8725 533.359 20.7824C533.426 20.667 533.461 20.5352 533.461 20.4009C533.461 20.2666 533.426 20.1348 533.359 20.0194C533.214 19.7523 533.042 19.5022 532.844 19.2736L531.857 17.9729C531.523 17.5949 531.249 17.1646 531.047 16.6982Z" fill="#AA6550"/>
<path d="M533.004 22.057C533.004 21.9877 533.536 21.8749 534.313 22.1177L534.068 22.3345C533.948 21.838 533.928 21.3218 534.009 20.817C534.124 20.1347 534.415 19.4967 534.853 18.97C535.182 18.5712 535.46 18.4151 535.494 18.4584C535.025 19.2031 534.683 20.0241 534.481 20.8864C534.414 21.3405 534.414 21.8024 534.481 22.2565V22.6033L534.194 22.4819C533.511 22.1871 532.996 22.1437 533.004 22.057Z" fill="#AA6550"/>
<path d="M569.318 70.7378L567.166 78.2385L553.495 71.8738C553.993 70.3043 556.254 63.3152 560.575 52.2246C561.757 49.1822 563.682 46.5038 566.163 44.4474C568.645 42.391 571.6 41.0259 574.744 40.4836C579.065 39.681 583.443 39.2402 587.833 39.1655C595.504 39.2522 606.787 44.1776 608.298 51.895C609.463 57.7915 605.657 94.6447 605.657 94.6447L607.935 108.614L568.06 106.36L569.318 70.7378Z" fill="#3526E5"/>
<path d="M568.331 44.5243C568.331 44.5243 568.727 44.585 569.377 44.8451C570.284 45.2487 571.066 45.8994 571.639 46.7268C572.475 47.9653 572.944 49.426 572.989 50.9324C573.044 52.7864 572.905 54.641 572.576 56.4647C572.019 59.801 571.286 63.1038 570.382 66.3587C570.061 67.5726 569.791 68.5699 569.588 69.3329C569.472 69.6916 569.388 70.0601 569.335 70.4342C569.493 70.0915 569.621 69.7344 569.715 69.3676C569.934 68.6739 570.246 67.6767 570.609 66.428C571.59 63.1802 572.359 59.8692 572.913 56.5167C573.245 54.6672 573.375 52.7855 573.301 50.9064C573.236 49.3445 572.725 47.8369 571.833 46.5707C571.217 45.7261 570.38 45.0794 569.419 44.7064C569.158 44.6183 568.89 44.5545 568.618 44.5156C568.415 44.5156 568.331 44.5069 568.331 44.5243Z" fill="#263238"/>
<path d="M605.412 46.1548C605.412 46.2068 596.205 46.2502 584.846 46.2502C573.487 46.2502 564.288 46.2502 564.288 46.1548C564.288 46.0594 573.487 46.0681 584.846 46.0681C596.205 46.0681 605.412 46.1114 605.412 46.1548Z" fill="#F5F5F5"/>
<path d="M608.45 53.1784C608.45 53.2217 597.639 53.2651 584.297 53.2651C570.955 53.2651 560.145 53.2651 560.145 53.1784C560.145 53.0917 570.955 53.083 584.297 53.083C597.639 53.083 608.45 53.1264 608.45 53.1784Z" fill="#F5F5F5"/>
<path d="M608.399 60.4711C608.399 60.5231 597.023 60.5578 582.981 60.5578C568.938 60.5578 557.562 60.5578 557.562 60.4711C557.562 60.3844 568.938 60.3757 582.981 60.3757C597.023 60.3757 608.399 60.4191 608.399 60.4711Z" fill="#F5F5F5"/>
<path d="M607.682 66.7143C607.682 66.7663 595.867 66.801 581.394 66.801C566.921 66.801 555.106 66.801 555.106 66.7143C555.106 66.6276 566.87 66.6189 581.394 66.6189C595.918 66.6189 607.682 66.6623 607.682 66.7143Z" fill="#F5F5F5"/>
<path d="M607.555 73.7207C607.555 73.7727 598.922 73.7987 588.281 73.7814C577.639 73.764 568.997 73.7033 568.997 73.66C568.997 73.6166 577.631 73.5819 588.281 73.5993C598.931 73.6166 607.555 73.6253 607.555 73.7207Z" fill="#F5F5F5"/>
<path d="M607.15 79.1057C607.15 79.1577 598.618 79.1837 588.095 79.1664C577.571 79.149 569.04 79.0883 569.04 79.045C569.04 79.0016 577.571 78.967 588.095 78.9843C598.618 79.0016 607.15 79.0537 607.15 79.1057Z" fill="#F5F5F5"/>
<path d="M606.087 84.4646C606.087 84.5167 597.648 84.5427 587.319 84.5253C576.989 84.508 568.542 84.456 568.542 84.4039C568.542 84.3519 576.981 84.3259 587.319 84.3432C597.657 84.3606 606.087 84.4126 606.087 84.4646Z" fill="#F5F5F5"/>
<path d="M606.087 90.283H605.716H600.652C597.277 90.283 592.652 90.2049 587.538 90.0922L574.423 89.8494L570.449 89.7974H574.423C577.799 89.7974 582.415 89.8754 587.538 89.9795L600.652 90.2223L604.627 90.2743H605.707C605.834 90.2693 605.961 90.2722 606.087 90.283Z" fill="#F5F5F5"/>
<path d="M605.302 95.2517C605.302 95.3038 597.048 95.3298 586.879 95.3124C576.71 95.2951 568.457 95.2431 568.457 95.191C568.457 95.139 576.702 95.113 586.879 95.1304C597.057 95.1477 605.302 95.1997 605.302 95.2517Z" fill="#F5F5F5"/>
<path d="M606.635 100.645C606.635 100.697 598.086 100.723 587.546 100.706C577.006 100.689 568.457 100.628 568.457 100.585C568.457 100.541 577.006 100.507 587.546 100.524C598.086 100.541 606.635 100.602 606.635 100.645Z" fill="#F5F5F5"/>
<path d="M607.522 106.065C607.522 106.117 598.686 106.221 587.791 106.308C576.897 106.394 568.061 106.412 568.061 106.36C568.061 106.308 576.897 106.204 587.791 106.126C598.686 106.047 607.522 106.021 607.522 106.065Z" fill="#F5F5F5"/>
<path d="M568.609 73.4262C568.609 73.4782 565.529 73.3221 561.74 73.0794C557.951 72.8366 554.887 72.6111 554.887 72.5591C554.887 72.5071 557.967 72.6631 561.757 72.9059C565.546 73.1487 568.609 73.3742 568.609 73.4262Z" fill="#F5F5F5"/>
<path d="M599.445 92.7283C599.324 92.7626 599.2 92.783 599.074 92.789C598.829 92.789 598.475 92.867 598.011 92.8757C596.699 92.9252 595.385 92.8497 594.086 92.6502C589.754 92.017 585.686 90.1322 582.356 87.2154C579.026 84.2986 576.57 80.4698 575.276 76.1747C574.877 74.8891 574.594 73.5683 574.432 72.2293C574.364 71.761 574.356 71.3621 574.339 71.1367C574.317 71.0105 574.317 70.8813 574.339 70.7551C574.453 71.2323 574.54 71.7158 574.601 72.2032C574.822 73.5164 575.143 74.8096 575.563 76.0707C576.916 80.262 579.363 83.9912 582.636 86.852C585.91 89.7129 589.885 91.5955 594.129 92.2947C595.409 92.5185 596.704 92.6403 598.002 92.6589C598.484 92.6446 598.967 92.6678 599.445 92.7283Z" fill="#263238"/>
<g opacity="0.2">
<path d="M568.997 73.6168C571.551 70.9953 573.331 67.6856 574.133 64.0694C574.935 60.4532 574.725 56.6778 573.529 53.1785C571.841 59.9768 570.305 66.8098 568.921 73.6775" fill="black"/>
</g>
<g opacity="0.2">
<path d="M575.529 76.7905C576.581 78.9611 578.095 80.8601 579.959 82.3464C581.823 83.8327 583.99 84.8679 586.297 85.3752C588.036 85.748 589.825 85.8087 591.555 86.2423C593.325 86.553 594.916 87.5376 596.011 88.9998C596.576 89.8669 596.855 91.1502 596.129 91.9393C595.403 92.7284 594.129 92.607 593.091 92.3209C589.196 91.2326 585.574 89.2997 582.467 86.6522C579.361 84.0047 576.843 80.7042 575.082 76.9726" fill="black"/>
</g>
<path d="M568.061 106.36L596.256 235.545H612.206L596.619 123.39L599.547 113.861L597.8 107.548L568.061 106.36Z" fill="#263238"/>
<path d="M589.749 123.035C591.125 124.543 590.281 171.525 590.281 171.525L635.008 210.077L645.81 200.4L609.066 164.492L610.18 121.135L607.893 107.955L587.817 106.967L589.749 123.035Z" fill="#263238"/>
<path d="M601.682 112.013C601.783 112.312 601.84 112.625 601.851 112.941C601.9 113.858 601.756 114.775 601.429 115.629C600.912 116.973 600.213 118.234 599.353 119.375C598.202 120.838 597.321 122.504 596.753 124.292C596.311 126.525 596.328 128.829 596.804 131.056L598.121 138.86C599.015 144.357 599.943 150.41 600.88 156.766C602.737 169.47 604.416 180.968 605.631 189.327C606.264 193.472 606.771 196.828 607.133 199.186C607.302 200.331 607.437 201.224 607.539 201.874C607.539 202.161 607.606 202.386 607.631 202.568C607.637 202.649 607.637 202.73 607.631 202.811C607.597 202.737 607.574 202.658 607.564 202.577C607.564 202.395 607.48 202.169 607.429 201.883C607.311 201.241 607.142 200.348 606.939 199.221C606.526 196.897 605.96 193.541 605.302 189.379C603.969 181.063 602.289 169.548 600.424 156.827C599.479 150.479 598.568 144.427 597.69 138.929C597.243 136.18 596.846 133.57 596.424 131.125C595.947 128.839 595.947 126.474 596.424 124.188C597.019 122.371 597.938 120.683 599.133 119.211C599.993 118.094 600.703 116.863 601.243 115.551C601.709 114.438 601.861 113.212 601.682 112.013Z" fill="#455A64"/>
<path d="M609.353 164.64C609.353 164.77 608.222 165.091 606.906 165.776C605.589 166.461 604.644 167.206 604.56 167.111C605.154 166.387 605.885 165.794 606.709 165.369C607.533 164.945 608.433 164.696 609.353 164.64Z" fill="#455A64"/>
<path d="M461.745 265.661H371.117V303.485H461.745V265.661Z" fill="white"/>
<path d="M461.753 303.511C461.753 303.511 461.753 303.277 461.753 302.835C461.753 302.393 461.753 301.725 461.753 300.866C461.753 299.132 461.753 296.609 461.753 293.34C461.753 286.81 461.753 277.367 461.702 265.678L461.803 265.782H371.176L371.32 265.635V303.511L371.176 303.364L436.157 303.433H455.01H460.073H455.052H436.233L371.159 303.502H371.024V303.511C371.024 291.718 371.024 278.928 371.024 265.678V265.531H371.176L461.803 265.574H461.905V265.678C461.905 277.393 461.863 286.862 461.846 293.426C461.846 296.687 461.846 299.21 461.846 300.936C461.846 301.803 461.846 302.436 461.846 302.878C461.846 303.32 461.753 303.511 461.753 303.511Z" fill="#263238"/>
<path d="M371.21 270.768C371.21 270.681 391.464 270.621 416.452 270.621C441.44 270.621 461.694 270.681 461.694 270.768C461.694 270.855 441.44 270.915 416.452 270.915C391.464 270.915 371.21 270.846 371.21 270.768Z" fill="#263238"/>
<g opacity="0.3">
<path d="M375.007 268.487C375.007 268.667 374.938 268.839 374.814 268.965C374.691 269.092 374.524 269.163 374.349 269.163C374.175 269.163 374.007 269.092 373.884 268.965C373.76 268.839 373.691 268.667 373.691 268.487C373.691 268.308 373.76 268.136 373.884 268.009C374.007 267.882 374.175 267.811 374.349 267.811C374.524 267.811 374.691 267.882 374.814 268.009C374.938 268.136 375.007 268.308 375.007 268.487Z" fill="#263238"/>
</g>
<g opacity="0.3">
<path d="M377.26 268.487C377.26 268.667 377.191 268.839 377.068 268.965C376.944 269.092 376.777 269.163 376.602 269.163C376.428 269.163 376.26 269.092 376.137 268.965C376.014 268.839 375.944 268.667 375.944 268.487C375.944 268.308 376.014 268.136 376.137 268.009C376.26 267.882 376.428 267.811 376.602 267.811C376.777 267.811 376.944 267.882 377.068 268.009C377.191 268.136 377.26 268.308 377.26 268.487Z" fill="#263238"/>
</g>
<g opacity="0.3">
<path d="M379.48 268.487C379.48 268.667 379.41 268.839 379.287 268.965C379.164 269.092 378.996 269.163 378.822 269.163C378.647 269.163 378.48 269.092 378.356 268.965C378.233 268.839 378.164 268.667 378.164 268.487C378.164 268.308 378.233 268.136 378.356 268.009C378.48 267.882 378.647 267.811 378.822 267.811C378.996 267.811 379.164 267.882 379.287 268.009C379.41 268.136 379.48 268.308 379.48 268.487Z" fill="#263238"/>
</g>
<path d="M400.713 276.916H378.822V299.409H400.713V276.916Z" fill="#455A64"/>
<path d="M455.483 282.943C455.483 283.021 444.216 283.09 430.326 283.09C416.435 283.09 405.16 283.021 405.16 282.943C405.16 282.865 416.427 282.795 430.326 282.795C444.225 282.795 455.483 282.856 455.483 282.943Z" fill="#263238"/>
<path d="M455.483 287.521C455.483 287.608 444.216 287.669 430.326 287.669C416.435 287.669 405.16 287.608 405.16 287.521C405.16 287.434 416.427 287.374 430.326 287.374C444.225 287.374 455.483 287.443 455.483 287.521Z" fill="#263238"/>
<path d="M437.524 292.108H437.195H436.25L432.773 292.161H421.321H409.869L406.401 292.108H405.456H405.127C405.236 292.094 405.347 292.094 405.456 292.108H406.401H409.869L421.321 292.065L432.773 292.108H436.25H437.195C437.305 292.094 437.415 292.094 437.524 292.108Z" fill="#263238"/>
<path d="M476.757 291.111H437.896V326.897H476.757V291.111Z" fill="#3526E5"/>
<g opacity="0.2">
<path d="M476.757 291.111H437.896V326.897H476.757V291.111Z" fill="black"/>
</g>
<path d="M453.314 262.504H362.686V300.328H453.314V262.504Z" fill="white"/>
<path d="M453.314 300.329C453.314 300.329 453.314 300.095 453.314 299.652C453.314 299.21 453.314 298.551 453.314 297.693C453.314 295.958 453.314 293.426 453.314 290.157C453.314 283.636 453.314 274.185 453.254 262.504L453.356 262.608L362.728 262.652L362.872 262.504C362.872 275.745 362.872 288.518 362.872 300.329L362.737 300.19L427.718 300.251L446.562 300.294H451.626H446.613H427.794L362.72 300.363H362.577V262.357H362.72H453.347H453.449V262.461C453.449 274.176 453.406 283.636 453.398 290.209C453.398 293.461 453.398 295.993 453.398 297.71C453.398 298.577 453.398 299.21 453.398 299.652C453.398 300.095 453.314 300.329 453.314 300.329Z" fill="#263238"/>
<path d="M362.771 267.603C362.771 267.516 383.025 267.456 408.013 267.456C433.001 267.456 453.263 267.516 453.263 267.603C453.263 267.69 433.01 267.75 408.013 267.75C383.016 267.75 362.771 267.681 362.771 267.603Z" fill="#263238"/>
<g opacity="0.3">
<path d="M365.91 265.998C366.273 265.998 366.568 265.696 366.568 265.322C366.568 264.949 366.273 264.646 365.91 264.646C365.546 264.646 365.252 264.949 365.252 265.322C365.252 265.696 365.546 265.998 365.91 265.998Z" fill="#263238"/>
</g>
<g opacity="0.3">
<path d="M368.821 265.357C368.821 265.491 368.783 265.621 368.71 265.733C368.638 265.844 368.535 265.93 368.415 265.982C368.295 266.033 368.162 266.046 368.035 266.02C367.907 265.994 367.79 265.93 367.698 265.835C367.606 265.74 367.543 265.62 367.518 265.489C367.492 265.358 367.505 265.222 367.555 265.098C367.605 264.975 367.689 264.869 367.797 264.795C367.906 264.72 368.033 264.681 368.163 264.681C368.338 264.681 368.505 264.752 368.628 264.879C368.752 265.006 368.821 265.178 368.821 265.357Z" fill="#263238"/>
</g>
<g opacity="0.3">
<path d="M371.041 265.357C371.041 265.491 371.002 265.621 370.93 265.733C370.858 265.844 370.755 265.93 370.635 265.982C370.514 266.033 370.382 266.046 370.254 266.02C370.127 265.994 370.009 265.93 369.917 265.835C369.825 265.74 369.763 265.62 369.737 265.489C369.712 265.358 369.725 265.222 369.775 265.098C369.825 264.975 369.909 264.869 370.017 264.795C370.125 264.72 370.253 264.681 370.383 264.681C370.557 264.681 370.725 264.752 370.848 264.879C370.971 265.006 371.041 265.178 371.041 265.357Z" fill="#263238"/>
</g>
<path d="M392.274 273.751H370.383V296.244H392.274V273.751Z" fill="#455A64"/>
<path d="M447.043 279.778C447.043 279.856 435.777 279.925 421.887 279.925C407.996 279.925 396.73 279.856 396.73 279.778C396.73 279.7 407.987 279.63 421.887 279.63C435.786 279.63 447.043 279.7 447.043 279.778Z" fill="#263238"/>
<path d="M447.043 284.356C447.043 284.443 435.777 284.504 421.887 284.504C407.996 284.504 396.73 284.443 396.73 284.356C396.73 284.269 407.987 284.209 421.887 284.209C435.786 284.209 447.043 284.278 447.043 284.356Z" fill="#263238"/>
<path d="M427.811 288.943L424.342 288.987L412.89 289.03L401.438 288.987L397.962 288.943H397.025C396.915 288.955 396.805 288.955 396.696 288.943H397.025H397.962L401.438 288.9L412.89 288.856L424.342 288.9L427.811 288.943Z" fill="#263238"/>
<path d="M447.145 270.36H356.518V308.185H447.145V270.36Z" fill="white"/>
<path d="M447.145 308.185C447.145 308.185 447.145 307.951 447.145 307.509C447.145 307.066 447.145 306.407 447.145 305.549C447.145 303.815 447.145 301.283 447.145 298.013C447.145 291.493 447.145 282.041 447.086 270.361L447.187 270.465L356.509 270.508L356.653 270.361C356.653 283.602 356.653 296.375 356.653 308.185L356.518 308.046L421.498 308.107L440.343 308.15H445.406H440.394H421.574L356.501 308.22H356.366V308.081C356.366 296.288 356.366 283.498 356.366 270.257V270.109H356.509H447.128H447.229V270.213C447.229 281.928 447.229 291.389 447.179 297.961C447.179 301.213 447.179 303.745 447.179 305.462C447.179 306.329 447.179 306.962 447.179 307.404C447.179 307.847 447.145 308.185 447.145 308.185Z" fill="#263238"/>
<path d="M356.61 275.459C356.61 275.373 376.864 275.312 401.844 275.312C426.823 275.312 447.094 275.373 447.094 275.459C447.094 275.546 426.84 275.607 401.844 275.607C376.847 275.607 356.61 275.537 356.61 275.459Z" fill="#263238"/>
<g opacity="0.3">
<path d="M360.399 273.161C360.399 273.295 360.361 273.426 360.288 273.537C360.216 273.648 360.113 273.735 359.993 273.786C359.873 273.837 359.74 273.851 359.613 273.824C359.485 273.798 359.368 273.734 359.276 273.639C359.184 273.545 359.121 273.424 359.096 273.293C359.07 273.162 359.083 273.026 359.133 272.903C359.183 272.779 359.267 272.673 359.375 272.599C359.484 272.525 359.611 272.485 359.741 272.485C359.916 272.485 360.083 272.556 360.206 272.683C360.33 272.81 360.399 272.982 360.399 273.161Z" fill="#263238"/>
</g>
<g opacity="0.3">
<path d="M361.994 273.855C362.358 273.855 362.652 273.552 362.652 273.179C362.652 272.805 362.358 272.502 361.994 272.502C361.631 272.502 361.336 272.805 361.336 273.179C361.336 273.552 361.631 273.855 361.994 273.855Z" fill="#263238"/>
</g>
<g opacity="0.3">
<path d="M364.872 273.161C364.872 273.295 364.833 273.426 364.761 273.537C364.689 273.648 364.586 273.735 364.466 273.786C364.345 273.837 364.213 273.851 364.085 273.825C363.958 273.798 363.841 273.734 363.749 273.639C363.657 273.545 363.594 273.424 363.568 273.293C363.543 273.162 363.556 273.026 363.606 272.903C363.656 272.779 363.74 272.673 363.848 272.599C363.956 272.525 364.084 272.485 364.214 272.485C364.301 272.484 364.387 272.501 364.467 272.534C364.547 272.568 364.62 272.618 364.682 272.681C364.743 272.744 364.791 272.819 364.824 272.901C364.857 272.984 364.873 273.072 364.872 273.161Z" fill="#263238"/>
</g>
<path d="M386.105 281.607H364.214V304.101H386.105V281.607Z" fill="#455A64"/>
<path d="M440.9 287.634C440.9 287.712 429.634 287.781 415.743 287.781C401.852 287.781 390.586 287.712 390.586 287.634C390.586 287.556 401.844 287.486 415.743 287.486C429.642 287.486 440.9 287.556 440.9 287.634Z" fill="#263238"/>
<path d="M440.9 292.238C440.9 292.325 429.634 292.386 415.743 292.386C401.852 292.386 390.586 292.325 390.586 292.238C390.586 292.152 401.844 292.091 415.743 292.091C429.642 292.091 440.9 292.134 440.9 292.238Z" fill="#263238"/>
<path d="M422.95 296.799H422.621H421.676L418.207 296.843L406.755 296.886L395.329 296.904L391.86 296.86L395.329 296.817L406.781 296.773L418.233 296.817L421.701 296.86H422.646L422.95 296.799Z" fill="#263238"/>
<path d="M347.471 291.111V326.923H456.934V291.111H347.471ZM406.055 305.245H389.514C388.572 305.245 387.668 304.86 387.002 304.176C386.336 303.491 385.961 302.563 385.961 301.594C385.961 300.626 386.336 299.698 387.002 299.013C387.668 298.328 388.572 297.944 389.514 297.944H406.055C406.997 297.944 407.901 298.328 408.567 299.013C409.233 299.698 409.608 300.626 409.608 301.594C409.608 302.563 409.233 303.491 408.567 304.176C407.901 304.86 406.997 305.245 406.055 305.245Z" fill="#3526E5"/>
<path d="M277.182 247.746C276.218 247.748 275.276 247.455 274.474 246.906C273.672 246.357 273.046 245.576 272.677 244.661C272.307 243.747 272.21 242.74 272.397 241.769C272.585 240.797 273.049 239.905 273.731 239.205C274.412 238.504 275.28 238.028 276.226 237.835C277.171 237.642 278.151 237.742 279.041 238.122C279.931 238.502 280.691 239.144 281.226 239.968C281.76 240.792 282.045 241.761 282.043 242.751C282.043 244.076 281.531 245.346 280.619 246.283C279.708 247.22 278.471 247.746 277.182 247.746Z" fill="#3526E5"/>
<path d="M131.041 312.214C131.778 309.562 130.282 306.798 127.701 306.041C125.119 305.284 122.429 306.82 121.692 309.473C120.955 312.125 122.451 314.889 125.032 315.646C127.614 316.404 130.304 314.867 131.041 312.214Z" fill="#3526E5"/>
<path d="M373.404 97.9313C376.089 97.9313 378.265 95.6951 378.265 92.9366C378.265 90.1781 376.089 87.9419 373.404 87.9419C370.72 87.9419 368.543 90.1781 368.543 92.9366C368.543 95.6951 370.72 97.9313 373.404 97.9313Z" fill="#3526E5"/>
<path d="M444.428 174.534C447.112 174.534 449.288 172.298 449.288 169.539C449.288 166.781 447.112 164.544 444.428 164.544C441.743 164.544 439.567 166.781 439.567 169.539C439.567 172.298 441.743 174.534 444.428 174.534Z" fill="#3526E5"/>
<path d="M528.236 13.8888C530.921 13.8888 533.097 11.6526 533.097 8.89409C533.097 6.13561 530.921 3.89941 528.236 3.89941C525.552 3.89941 523.375 6.13561 523.375 8.89409C523.375 11.6526 525.552 13.8888 528.236 13.8888Z" fill="#3526E5"/>
<path d="M202.437 190.168C205.122 190.168 207.298 187.932 207.298 185.174C207.298 182.415 205.122 180.179 202.437 180.179C199.752 180.179 197.576 182.415 197.576 185.174C197.576 187.932 199.752 190.168 202.437 190.168Z" fill="#3526E5"/>
<path d="M528.236 8.89404L527.856 9.65712L526.7 11.8943C525.679 13.8801 524.169 16.8023 522.185 20.6177L505.037 53.6554C490.235 82.0801 469.12 122.61 443.879 171.048L443.753 171.291L443.575 171.091L372.206 92.6764H372.544L336.45 149.578L276.178 244.485L276.051 244.685L275.874 244.537L202.454 184.159L202.715 184.116L146.942 276.405L131.49 301.916C129.717 304.846 128.35 307.118 127.43 308.601L126.03 310.873C126.03 310.873 126.485 310.084 127.388 308.566L131.405 301.864C134.933 295.976 140.131 287.339 146.764 276.292L202.395 183.925L202.496 183.751L202.656 183.873L276.127 244.199L275.823 244.251L336.045 149.309L372.147 92.4076L372.299 92.1648L372.484 92.3729L443.82 170.84H443.508C468.825 122.428 489.965 81.924 504.809 53.5254L522.076 20.5743L526.65 11.903C527.164 10.9231 527.561 10.1687 527.831 9.67446C528.101 9.1802 528.236 8.89404 528.236 8.89404Z" fill="#3526E5"/>
<mask id="mask0_19_265" style="mask-type:luminance" maskUnits="userSpaceOnUse" x="123" y="5" width="409" height="309">
<path d="M531.03 5.89404H123.03V313.894H531.03V5.89404Z" fill="white"/>
<path d="M528.236 8.89404L527.856 9.65712L526.7 11.8943C525.679 13.8801 524.169 16.8023 522.185 20.6177L505.037 53.6554C490.235 82.0801 469.12 122.61 443.879 171.048L443.753 171.291L443.575 171.091L372.206 92.6764H372.544L336.45 149.578L276.178 244.485L276.051 244.685L275.874 244.537L202.454 184.159L202.715 184.116L146.942 276.405L131.49 301.916C129.717 304.846 128.35 307.118 127.43 308.601L126.03 310.873C126.03 310.873 126.485 310.084 127.388 308.566L131.405 301.864C134.933 295.976 140.131 287.339 146.764 276.292L202.395 183.925L202.496 183.751L202.656 183.873L276.127 244.199L275.823 244.251L336.045 149.309L372.147 92.4076L372.299 92.1648L372.484 92.3729L443.82 170.84H443.508C468.825 122.428 489.965 81.924 504.809 53.5254L522.076 20.5743L526.65 11.903C527.164 10.9231 527.561 10.1687 527.831 9.67446C528.101 9.1802 528.236 8.89404 528.236 8.89404Z" fill="#1B1A5D"/>
</mask>
<g mask="url(#mask0_19_265)">
<path d="M528.236 8.89401L530.637 10.0267C531.258 8.71061 530.703 7.14002 529.394 6.50536C528.084 5.8707 526.508 6.4086 525.86 7.71133L528.236 8.89401ZM527.856 9.65709L530.215 10.8758C530.221 10.8638 530.227 10.8518 530.233 10.8398L527.856 9.65709ZM526.7 11.8943L524.342 10.6757L524.34 10.6804L526.7 11.8943ZM522.185 20.6177L519.83 19.3935L519.829 19.3948L522.185 20.6177ZM505.037 53.6554L507.391 54.8815L507.393 54.8783L505.037 53.6554ZM443.753 171.291L441.768 173.054C442.348 173.706 443.212 174.032 444.078 173.925C444.944 173.818 445.703 173.292 446.106 172.518L443.753 171.291ZM443.575 171.091L445.56 169.328C445.553 169.32 445.546 169.312 445.538 169.305L443.575 171.091ZM372.206 92.6764V90.022C371.155 90.022 370.203 90.642 369.778 91.6033C369.353 92.5645 369.536 93.6859 370.243 94.4631L372.206 92.6764ZM372.544 92.6764L374.785 94.0983C375.304 93.2807 375.336 92.2457 374.87 91.3974C374.403 90.5491 373.512 90.022 372.544 90.022V92.6764ZM336.45 149.578L338.69 151.001L338.691 151L336.45 149.578ZM276.178 244.485L273.937 243.062V243.063L276.178 244.485ZM276.051 244.685L274.354 246.726C274.94 247.214 275.709 247.425 276.463 247.307C277.217 247.189 277.883 246.752 278.292 246.107L276.051 244.685ZM275.874 244.537L277.571 242.497C277.568 242.494 277.564 242.49 277.56 242.487L275.874 244.537ZM202.454 184.159L202.02 181.54C200.993 181.71 200.16 182.466 199.89 183.471C199.62 184.477 199.964 185.548 200.768 186.209L202.454 184.159ZM202.715 184.116L204.987 185.489C205.523 184.602 205.494 183.484 204.913 182.626C204.331 181.768 203.304 181.327 202.282 181.497L202.715 184.116ZM146.942 276.405L149.212 277.78L149.213 277.777L146.942 276.405ZM131.49 301.916L129.219 300.54L129.218 300.542L131.49 301.916ZM127.43 308.601L125.175 307.202L125.171 307.208L127.43 308.601ZM126.03 310.873L123.731 309.546C123.005 310.802 123.423 312.409 124.669 313.152C125.915 313.896 127.527 313.501 128.289 312.266L126.03 310.873ZM127.388 308.566L125.111 307.202L125.107 307.209L127.388 308.566ZM146.764 276.292L144.49 274.922L144.489 274.925L146.764 276.292ZM202.395 183.925L204.669 185.294C204.675 185.284 204.681 185.274 204.687 185.263L202.395 183.925ZM202.496 183.751L204.098 181.635C203.493 181.177 202.721 181 201.976 181.148C201.232 181.297 200.587 181.757 200.204 182.413L202.496 183.751ZM202.656 183.873L204.341 181.821C204.314 181.799 204.286 181.777 204.259 181.756L202.656 183.873ZM276.127 244.199L276.575 246.816C277.599 246.64 278.427 245.883 278.693 244.879C278.959 243.874 278.615 242.807 277.812 242.148L276.127 244.199ZM275.823 244.251L273.582 242.829C273.02 243.715 273.032 244.849 273.614 245.723C274.196 246.596 275.237 247.045 276.271 246.868L275.823 244.251ZM372.147 92.4076L374.388 93.8297C374.391 93.825 374.394 93.8202 374.397 93.8155L372.147 92.4076ZM372.299 92.1648L374.28 90.3978C373.724 89.7745 372.907 89.4492 372.074 89.5199C371.242 89.5905 370.492 90.0488 370.049 90.757L372.299 92.1648ZM372.484 92.3729L370.504 94.1399C370.509 94.1461 370.515 94.1523 370.52 94.1585L372.484 92.3729ZM443.82 170.84V173.494C444.871 173.494 445.823 172.874 446.248 171.914C446.673 170.953 446.491 169.832 445.784 169.054L443.82 170.84ZM443.508 170.84L441.156 169.61C440.725 170.433 440.756 171.42 441.237 172.215C441.718 173.009 442.579 173.494 443.508 173.494V170.84ZM504.809 53.5254L502.458 52.2934L502.457 52.2957L504.809 53.5254ZM522.076 20.5743L519.728 19.3359L519.724 19.3423L522.076 20.5743ZM526.65 11.903L528.997 13.1414L528.999 13.1375L526.65 11.903ZM525.86 7.71133L525.48 8.47441L530.233 10.8398L530.613 10.0767L525.86 7.71133ZM525.498 8.43844L524.342 10.6757L529.058 13.113L530.215 10.8758L525.498 8.43844ZM524.34 10.6804C523.321 12.6618 521.812 15.5805 519.83 19.3935L524.541 21.8419C526.525 18.0241 528.037 15.0983 529.061 13.1082L524.34 10.6804ZM519.829 19.3948L502.681 52.4326L507.393 54.8783L524.541 21.8405L519.829 19.3948ZM502.683 52.4294C487.881 80.8537 466.766 121.383 441.525 169.821L446.233 172.275C471.474 123.836 492.589 83.3064 507.391 54.8815L502.683 52.4294ZM441.525 169.821L441.399 170.063L446.106 172.518L446.233 172.275L441.525 169.821ZM445.737 169.528L445.56 169.328L441.591 172.854L441.768 173.054L445.737 169.528ZM445.538 169.305L374.169 90.8897L370.243 94.4631L441.612 172.878L445.538 169.305ZM372.206 95.3308H372.544V90.022H372.206V95.3308ZM370.302 91.2546L334.208 148.156L338.691 151L374.785 94.0983L370.302 91.2546ZM334.209 148.155L273.937 243.062L278.418 245.908L338.69 151.001L334.209 148.155ZM273.937 243.063L273.81 243.262L278.292 246.107L278.419 245.908L273.937 243.063ZM277.749 242.644L277.571 242.497L274.176 246.578L274.354 246.726L277.749 242.644ZM277.56 242.487L204.14 182.109L200.768 186.209L274.188 246.588L277.56 242.487ZM202.888 186.778L203.149 186.734L202.282 181.497L202.02 181.54L202.888 186.778ZM200.444 182.743L144.67 275.032L149.213 277.777L204.987 185.489L200.444 182.743ZM144.671 275.029L129.219 300.54L133.76 303.291L149.212 277.78L144.671 275.029ZM129.218 300.542C127.438 303.486 126.084 305.736 125.175 307.202L129.686 310C130.616 308.501 131.996 306.207 133.761 303.289L129.218 300.542ZM125.171 307.208L123.77 309.48L128.289 312.266L129.69 309.994L125.171 307.208ZM126.03 310.873C128.328 312.201 128.328 312.201 128.328 312.201C128.328 312.201 128.329 312.2 128.329 312.199C128.33 312.198 128.331 312.196 128.332 312.193C128.336 312.188 128.341 312.179 128.347 312.167C128.361 312.144 128.382 312.108 128.409 312.061C128.465 311.966 128.548 311.822 128.66 311.631C128.884 311.249 129.221 310.677 129.669 309.924L125.107 307.209C124.653 307.973 124.31 308.555 124.08 308.947C123.965 309.143 123.879 309.291 123.82 309.391C123.791 309.441 123.769 309.479 123.754 309.505C123.747 309.518 123.741 309.528 123.737 309.535C123.735 309.538 123.734 309.54 123.733 309.542C123.732 309.543 123.732 309.545 123.731 309.546C123.731 309.546 123.731 309.546 126.03 310.873ZM129.665 309.931L133.682 303.228L129.128 300.499L125.111 307.202L129.665 309.931ZM133.682 303.228C137.209 297.341 142.404 288.71 149.04 277.658L144.489 274.925C137.858 285.968 132.656 294.611 129.128 300.499L133.682 303.228ZM149.038 277.661L204.669 185.294L200.121 182.555L144.49 274.922L149.038 277.661ZM204.687 185.263L204.788 185.09L200.204 182.413L200.103 182.586L204.687 185.263ZM200.894 185.868L201.054 185.989L204.259 181.756L204.098 181.635L200.894 185.868ZM200.972 185.924L274.443 246.251L277.812 242.148L204.341 181.821L200.972 185.924ZM275.679 241.583L275.375 241.635L276.271 246.868L276.575 246.816L275.679 241.583ZM278.065 245.673L338.286 150.731L333.803 147.887L273.582 242.829L278.065 245.673ZM338.286 150.731L374.388 93.8297L369.906 90.9855L333.803 147.887L338.286 150.731ZM374.397 93.8155L374.549 93.5727L370.049 90.757L369.897 90.9998L374.397 93.8155ZM370.318 93.9318L370.504 94.1399L374.465 90.6059L374.28 90.3978L370.318 93.9318ZM370.52 94.1585L441.856 172.625L445.784 169.054L374.449 90.5873L370.52 94.1585ZM443.82 168.185H443.508V173.494H443.82V168.185ZM445.86 172.07C471.177 123.659 492.319 83.1506 507.162 54.755L502.457 52.2957C487.611 80.6974 466.473 121.197 441.156 169.61L445.86 172.07ZM507.16 54.7574L524.427 21.8063L519.724 19.3423L502.458 52.2934L507.16 54.7574ZM524.423 21.8128L528.997 13.1414L524.302 10.6646L519.728 19.3359L524.423 21.8128ZM528.999 13.1375C529.519 12.1486 529.903 11.4177 530.161 10.9472L525.502 8.40172C525.219 8.91973 524.81 9.69762 524.3 10.6685L528.999 13.1375ZM530.161 10.9472C530.31 10.6743 530.424 10.4546 530.503 10.298C530.543 10.2197 530.574 10.1571 530.596 10.1115C530.607 10.0887 530.616 10.0701 530.623 10.0559C530.626 10.0488 530.629 10.0428 530.631 10.038C530.633 10.0355 530.634 10.0334 530.635 10.0315C530.635 10.0305 530.635 10.0297 530.636 10.0289C530.636 10.0285 530.636 10.0281 530.636 10.0277C530.636 10.0275 530.637 10.0269 530.637 10.0267C530.637 10.0268 530.637 10.0266 530.637 10.0267C530.637 10.0266 530.637 10.0267 528.236 8.89401C525.836 7.76138 525.836 7.76126 525.836 7.76113C525.836 7.76084 525.836 7.75987 525.836 7.75961C525.837 7.75909 525.837 7.75864 525.837 7.75825C525.837 7.75748 525.838 7.75699 525.838 7.75676C525.838 7.75631 525.838 7.75655 525.837 7.75825C525.835 7.76164 525.831 7.76966 525.826 7.7814C525.814 7.80488 525.795 7.84473 525.767 7.89975C525.711 8.00983 525.623 8.18034 525.502 8.40172L530.161 10.9472Z" fill="#1B1A5D"/>
</g>
<path d="M238.047 331.117C296.278 331.117 343.483 329.362 343.483 327.198C343.483 325.033 296.278 323.279 238.047 323.279C179.816 323.279 132.611 325.033 132.611 327.198C132.611 329.362 179.816 331.117 238.047 331.117Z" fill="#3526E5"/>
<path opacity="0.8" d="M238.047 331.117C296.278 331.117 343.483 329.362 343.483 327.198C343.483 325.033 296.278 323.279 238.047 323.279C179.816 323.279 132.611 325.033 132.611 327.198C132.611 329.362 179.816 331.117 238.047 331.117Z" fill="white"/>
<path d="M288.722 179.888C288.515 179.888 288.316 179.971 288.169 180.117C288.023 180.264 287.941 180.463 287.941 180.67V184.677H273.656V180.67C273.656 180.463 273.574 180.264 273.427 180.117C273.281 179.971 273.082 179.888 272.874 179.888C272.667 179.888 272.468 179.971 272.322 180.117C272.175 180.264 272.093 180.463 272.093 180.67V281.614C272.093 281.821 272.175 282.02 272.322 282.167C272.468 282.313 272.667 282.396 272.874 282.396C273.082 282.396 273.281 282.313 273.427 282.167C273.574 282.02 273.656 281.821 273.656 281.614V259.033H287.941V281.614C287.941 281.821 288.023 282.02 288.169 282.167C288.316 282.313 288.515 282.396 288.722 282.396C288.93 282.396 289.128 282.313 289.275 282.167C289.422 282.02 289.504 281.821 289.504 281.614V180.654C289.5 180.45 289.416 180.255 289.27 180.112C289.123 179.968 288.927 179.888 288.722 179.888ZM287.941 257.485H273.656V252.42H287.941V257.485ZM287.941 250.851H273.656V245.791H287.941V250.851ZM287.941 244.223H273.656V239.178H287.941V244.223ZM287.941 237.599H273.656V232.575H287.941V237.599ZM287.941 230.98H273.656V226.014H287.941V230.98ZM287.941 224.383H273.656V219.385H287.941V224.383ZM287.941 217.817H273.656V212.772H287.941V217.817ZM287.941 211.188H273.656V206.143H287.941V211.188ZM287.941 204.574H273.656V199.514H287.941V204.574ZM287.941 197.946H273.656V192.875H287.941V197.946ZM287.941 191.311H273.656V186.241H287.941V191.311Z" fill="white"/>
<path d="M182.348 179.94C180.784 181.505 178.894 182.705 176.814 183.456C174.733 184.208 172.512 184.491 170.309 184.286L168.803 190.566L171.67 204.902L190.384 195.204L186.147 184.26L182.348 179.94Z" fill="#3526E5" stroke="#263238" stroke-width="1.32721" stroke-linecap="round" stroke-linejoin="round"/>
<path opacity="0.3" d="M182.348 179.94C180.784 181.505 178.894 182.705 176.814 183.456C174.733 184.208 172.512 184.491 170.309 184.286L168.803 190.566L171.67 204.902L190.384 195.204L186.147 184.26L182.348 179.94Z" fill="#263238"/>
<path d="M298.65 280.989L164.994 261.404C164.569 261.341 164.187 261.112 163.931 260.767C163.675 260.422 163.566 259.99 163.629 259.565L174.76 183.63C174.791 183.42 174.863 183.218 174.971 183.035C175.08 182.853 175.224 182.694 175.394 182.567C175.565 182.44 175.758 182.348 175.964 182.296C176.17 182.244 176.385 182.234 176.595 182.264L179.127 182.635C179.448 182.683 179.776 182.633 180.068 182.491C180.36 182.35 180.603 182.124 180.764 181.842L184.125 176.032C184.227 175.849 184.366 175.69 184.532 175.563C185.318 174.994 186.296 174.754 187.257 174.896L220.949 179.836C221.704 179.945 222.409 180.283 222.965 180.805C223.114 180.954 223.231 181.131 223.309 181.326L226.306 188.747C226.411 189.01 226.583 189.24 226.806 189.415C227.028 189.59 227.292 189.703 227.572 189.743L310.251 201.864C310.675 201.926 311.058 202.154 311.315 202.498C311.572 202.842 311.682 203.274 311.621 203.699L300.49 279.628C300.425 280.052 300.196 280.434 299.851 280.689C299.506 280.944 299.074 281.051 298.65 280.989Z" fill="#263238" stroke="#263238" stroke-width="1.32721" stroke-miterlimit="10"/>
<path d="M300.073 280.618H167.595C167.21 280.618 166.829 280.543 166.474 280.395C166.118 280.248 165.796 280.032 165.524 279.76C165.252 279.489 165.036 279.166 164.889 278.81C164.742 278.455 164.666 278.074 164.666 277.689V203.563C164.666 202.786 164.974 202.041 165.524 201.492C166.073 200.943 166.818 200.634 167.595 200.634H167.954C168.541 200.633 169.113 200.457 169.599 200.128C170.084 199.8 170.461 199.333 170.68 198.789L172.696 193.719C172.922 193.133 173.334 192.639 173.869 192.312C174.444 191.972 175.099 191.792 175.766 191.791H209.817C210.275 191.79 210.729 191.873 211.156 192.035C211.751 192.275 212.247 192.708 212.563 193.265L216.029 199.17C216.287 199.611 216.656 199.977 217.1 200.231C217.543 200.485 218.045 200.619 218.557 200.619H300.073C300.85 200.619 301.594 200.927 302.144 201.476C302.693 202.026 303.002 202.771 303.002 203.547V277.689C303.002 278.074 302.926 278.455 302.779 278.81C302.631 279.166 302.416 279.489 302.144 279.76C301.872 280.032 301.549 280.248 301.194 280.395C300.838 280.543 300.457 280.618 300.073 280.618Z" fill="#3526E5"/>
<mask id="mask1_19_265" style="mask-type:luminance" maskUnits="userSpaceOnUse" x="164" y="191" width="140" height="90">
<path d="M300.073 280.619H167.595C167.21 280.619 166.829 280.543 166.474 280.396C166.118 280.248 165.796 280.033 165.524 279.761C165.252 279.489 165.036 279.166 164.889 278.811C164.742 278.455 164.666 278.074 164.666 277.69V203.563C164.666 202.786 164.974 202.042 165.524 201.492C166.073 200.943 166.818 200.634 167.595 200.634H167.954C168.541 200.633 169.113 200.457 169.599 200.128C170.084 199.8 170.461 199.334 170.68 198.79L172.696 193.719C172.922 193.134 173.334 192.639 173.869 192.312C174.444 191.973 175.099 191.793 175.766 191.791H209.817C210.275 191.79 210.729 191.873 211.156 192.036C211.751 192.275 212.247 192.709 212.563 193.266L216.029 199.17C216.287 199.611 216.656 199.977 217.1 200.231C217.543 200.485 218.045 200.619 218.557 200.619H300.073C300.85 200.619 301.594 200.927 302.144 201.477C302.693 202.026 303.002 202.771 303.002 203.548V277.69C303.002 278.074 302.926 278.455 302.779 278.811C302.631 279.166 302.416 279.489 302.144 279.761C301.872 280.033 301.549 280.248 301.194 280.396C300.838 280.543 300.457 280.619 300.073 280.619Z" fill="white"/>
</mask>
<g mask="url(#mask1_19_265)">
<path opacity="0.1" d="M300.073 280.619H167.595C167.21 280.619 166.829 280.543 166.474 280.396C166.118 280.248 165.796 280.033 165.524 279.761C165.252 279.489 165.036 279.166 164.889 278.811C164.742 278.455 164.666 278.074 164.666 277.69V203.563C164.666 202.786 164.974 202.042 165.524 201.492C166.073 200.943 166.818 200.634 167.595 200.634H167.954C168.541 200.633 169.113 200.457 169.599 200.128C170.084 199.8 170.461 199.334 170.68 198.79L172.696 193.719C172.922 193.134 173.334 192.639 173.869 192.312C174.444 191.973 175.099 191.793 175.766 191.791H209.817C210.275 191.79 210.729 191.873 211.156 192.036C211.751 192.275 212.247 192.709 212.563 193.266L216.029 199.17C216.287 199.611 216.656 199.977 217.1 200.231C217.543 200.485 218.045 200.619 218.557 200.619H300.073C300.85 200.619 301.594 200.927 302.144 201.477C302.693 202.026 303.002 202.771 303.002 203.548V277.69C303.002 278.074 302.926 278.455 302.779 278.811C302.631 279.166 302.416 279.489 302.144 279.761C301.872 280.033 301.549 280.248 301.194 280.396C300.838 280.543 300.457 280.619 300.073 280.619Z" fill="#263238"/>
</g>
<path d="M300.073 280.618H167.595C167.21 280.618 166.829 280.543 166.474 280.395C166.118 280.248 165.796 280.032 165.524 279.76C165.252 279.489 165.036 279.166 164.889 278.81C164.742 278.455 164.666 278.074 164.666 277.689V203.563C164.666 202.786 164.974 202.041 165.524 201.492C166.073 200.943 166.818 200.634 167.595 200.634H167.954C168.541 200.633 169.113 200.457 169.599 200.128C170.084 199.8 170.461 199.333 170.68 198.789L172.696 193.719C172.922 193.133 173.334 192.639 173.869 192.312C174.444 191.972 175.099 191.792 175.766 191.791H209.817C210.275 191.79 210.729 191.873 211.156 192.035C211.751 192.275 212.247 192.708 212.563 193.265L216.029 199.17C216.287 199.611 216.656 199.977 217.1 200.231C217.543 200.485 218.045 200.619 218.557 200.619H300.073C300.85 200.619 301.594 200.927 302.144 201.476C302.693 202.026 303.002 202.771 303.002 203.547V277.689C303.002 278.074 302.926 278.455 302.779 278.81C302.631 279.166 302.416 279.489 302.144 279.76C301.872 280.032 301.549 280.248 301.194 280.395C300.838 280.543 300.457 280.618 300.073 280.618Z" stroke="#263238" stroke-width="1.32721" stroke-miterlimit="10"/>
<path d="M202.099 200.384H180.899C180.393 200.384 179.908 200.183 179.55 199.826C179.193 199.468 178.992 198.983 178.992 198.477C178.991 198.226 179.04 197.978 179.136 197.746C179.231 197.513 179.371 197.303 179.549 197.125C179.726 196.947 179.936 196.806 180.168 196.71C180.4 196.614 180.648 196.564 180.899 196.564H202.099C202.606 196.564 203.093 196.766 203.451 197.125C203.81 197.483 204.012 197.97 204.012 198.477C204.012 198.728 203.962 198.976 203.866 199.208C203.77 199.44 203.629 199.65 203.451 199.828C203.273 200.005 203.063 200.145 202.831 200.241C202.599 200.336 202.35 200.385 202.099 200.384Z" fill="white"/>
<path d="M300.073 293.553H167.595C166.818 293.553 166.073 293.245 165.524 292.695C164.974 292.146 164.666 291.401 164.666 290.624V216.498C164.666 215.721 164.974 214.976 165.524 214.427C166.073 213.878 166.818 213.569 167.595 213.569H167.954C168.541 213.569 169.114 213.393 169.599 213.064C170.085 212.735 170.461 212.269 170.68 211.724L172.696 206.659C172.921 206.073 173.333 205.578 173.869 205.252C174.443 204.91 175.098 204.73 175.766 204.731H209.817C210.275 204.73 210.729 204.813 211.156 204.976C211.752 205.215 212.248 205.651 212.563 206.211L216.029 212.12C216.287 212.561 216.656 212.927 217.1 213.181C217.543 213.436 218.045 213.569 218.557 213.569H300.073C300.85 213.569 301.594 213.878 302.144 214.427C302.693 214.976 303.002 215.721 303.002 216.498V290.624C303.002 291.401 302.693 292.146 302.144 292.695C301.594 293.245 300.85 293.553 300.073 293.553Z" fill="#263238" stroke="#263238" stroke-width="1.32721" stroke-miterlimit="10"/>
<path d="M212.256 185.099L191.223 182.494C190.72 182.43 190.264 182.17 189.952 181.771C189.641 181.371 189.5 180.865 189.56 180.362C189.624 179.859 189.885 179.402 190.285 179.091C190.686 178.78 191.194 178.642 191.697 178.705L212.725 181.311C213.228 181.373 213.685 181.633 213.997 182.032C214.309 182.432 214.449 182.939 214.387 183.442C214.356 183.691 214.277 183.931 214.153 184.149C214.029 184.367 213.863 184.559 213.665 184.713C213.467 184.867 213.241 184.98 212.999 185.046C212.757 185.113 212.505 185.131 212.256 185.099Z" fill="#3526E5"/>
<path opacity="0.5" d="M212.256 185.099L191.223 182.494C190.72 182.43 190.264 182.17 189.952 181.771C189.641 181.371 189.5 180.865 189.56 180.362C189.624 179.859 189.885 179.402 190.285 179.091C190.686 178.78 191.194 178.642 191.697 178.705L212.725 181.311C213.228 181.373 213.685 181.633 213.997 182.032C214.309 182.432 214.449 182.939 214.387 183.442C214.356 183.691 214.277 183.931 214.153 184.149C214.029 184.367 213.863 184.559 213.665 184.713C213.467 184.867 213.241 184.98 212.999 185.046C212.757 185.113 212.505 185.131 212.256 185.099Z" fill="white"/>
<path d="M202.099 213.324H180.899C180.648 213.324 180.4 213.275 180.168 213.178C179.936 213.082 179.726 212.941 179.549 212.764C179.371 212.586 179.231 212.375 179.136 212.143C179.04 211.911 178.991 211.663 178.992 211.412C178.992 210.905 179.193 210.42 179.55 210.061C179.908 209.703 180.393 209.5 180.899 209.499H202.099C202.606 209.499 203.093 209.701 203.451 210.059C203.81 210.418 204.012 210.904 204.012 211.412C204.012 211.919 203.81 212.405 203.451 212.764C203.093 213.123 202.606 213.324 202.099 213.324Z" fill="#3526E5"/>
<path opacity="0.5" d="M202.099 213.324H180.899C180.648 213.324 180.4 213.275 180.168 213.178C179.936 213.082 179.726 212.941 179.549 212.764C179.371 212.586 179.231 212.375 179.136 212.143C179.04 211.911 178.991 211.663 178.992 211.412C178.992 210.905 179.193 210.42 179.55 210.061C179.908 209.703 180.393 209.5 180.899 209.499H202.099C202.606 209.499 203.093 209.701 203.451 210.059C203.81 210.418 204.012 210.904 204.012 211.412C204.012 211.919 203.81 212.405 203.451 212.764C203.093 213.123 202.606 213.324 202.099 213.324Z" fill="white"/>
<path d="M304.403 235.863H163.259C161.742 235.863 160.512 237.093 160.512 238.61V324.019C160.512 325.536 161.742 326.765 163.259 326.765H304.403C305.92 326.765 307.15 325.536 307.15 324.019V238.61C307.15 237.093 305.92 235.863 304.403 235.863Z" fill="white"/>
<mask id="mask2_19_265" style="mask-type:luminance" maskUnits="userSpaceOnUse" x="160" y="235" width="148" height="92">
<path d="M304.403 235.863H163.259C161.742 235.863 160.512 237.093 160.512 238.61V324.019C160.512 325.536 161.742 326.765 163.259 326.765H304.403C305.92 326.765 307.15 325.536 307.15 324.019V238.61C307.15 237.093 305.92 235.863 304.403 235.863Z" fill="white"/>
</mask>
<g mask="url(#mask2_19_265)">
<g style="mix-blend-mode:multiply">
<path d="M307.149 260.331C290.895 275.522 272.427 288.156 252.378 297.801C222.751 311.97 188.888 321.736 169.158 326.765H304.398C304.759 326.766 305.117 326.695 305.451 326.558C305.784 326.42 306.088 326.218 306.343 325.963C306.599 325.708 306.802 325.405 306.94 325.071C307.078 324.738 307.149 324.38 307.149 324.019V260.331Z" fill="#3526E5"/>
</g>
<path opacity="0.2" d="M307.149 260.331C290.895 275.522 272.427 288.156 252.378 297.801C222.751 311.97 188.888 321.736 169.158 326.765H304.398C304.759 326.766 305.117 326.695 305.451 326.558C305.784 326.42 306.088 326.218 306.343 325.963C306.599 325.708 306.802 325.405 306.94 325.071C307.078 324.738 307.149 324.38 307.149 324.019V260.331Z" fill="white"/>
</g>
<path d="M304.403 235.863H163.259C161.742 235.863 160.512 237.093 160.512 238.61V324.019C160.512 325.536 161.742 326.765 163.259 326.765H304.403C305.92 326.765 307.15 325.536 307.15 324.019V238.61C307.15 237.093 305.92 235.863 304.403 235.863Z" stroke="#263238" stroke-width="1.32721" stroke-miterlimit="10"/>
<path d="M162.633 243.847V240.199C162.635 239.47 162.925 238.772 163.441 238.257C163.957 237.742 164.656 237.453 165.385 237.453H171.352" stroke="#263238" stroke-width="1.32721" stroke-miterlimit="10"/>
<path d="M162.633 299.249V248.292" stroke="#263238" stroke-width="1.32721" stroke-miterlimit="10"/>
<path d="M305.024 316.634V322.403C305.024 322.764 304.954 323.122 304.816 323.456C304.678 323.79 304.476 324.093 304.221 324.349C303.966 324.604 303.663 324.807 303.329 324.945C302.996 325.084 302.638 325.155 302.277 325.155H297.467" stroke="#263238" stroke-width="1.32721" stroke-miterlimit="10"/>
<path d="M305.023 242.565V312.345" stroke="#263238" stroke-width="1.32721" stroke-miterlimit="10"/>
<path d="M255.63 269.101H212.027C211.241 269.101 210.604 269.738 210.604 270.524V292.771C210.604 293.557 211.241 294.194 212.027 294.194H255.63C256.416 294.194 257.053 293.557 257.053 292.771V270.524C257.053 269.738 256.416 269.101 255.63 269.101Z" fill="#263238" stroke="#263238" stroke-width="1.32721" stroke-miterlimit="10"/>
<path d="M255.63 269.101H212.027C211.241 269.101 210.604 269.738 210.604 270.524V275.308C210.604 276.094 211.241 276.731 212.027 276.731H255.63C256.416 276.731 257.053 276.094 257.053 275.308V270.524C257.053 269.738 256.416 269.101 255.63 269.101Z" fill="white" stroke="#263238" stroke-width="1.32721" stroke-miterlimit="10"/>
<path d="M174.895 195.907L173.082 193.526" stroke="#263238" stroke-width="0.663607" stroke-linecap="round" stroke-linejoin="round"/>
<path d="M173.832 195.99L172.41 194.104" stroke="#263238" stroke-width="0.663607" stroke-linecap="round" stroke-linejoin="round"/>
<path d="M359.699 28.9854C359.699 28.8814 385.607 28.7947 417.566 28.7947C449.525 28.7947 475.433 28.8814 475.433 28.9854C475.433 29.0895 449.525 29.1762 417.566 29.1762C385.607 29.1762 359.699 29.0895 359.699 28.9854Z" fill="#3526E5"/>
<g opacity="0.3">
<path d="M364.551 26.0717C364.551 26.2432 364.501 26.4108 364.409 26.5534C364.316 26.6959 364.184 26.807 364.03 26.8726C363.876 26.9382 363.706 26.9554 363.543 26.922C363.379 26.8885 363.229 26.806 363.111 26.6847C362.993 26.5635 362.912 26.409 362.88 26.2408C362.847 26.0727 362.864 25.8984 362.928 25.74C362.992 25.5816 363.1 25.4462 363.238 25.3509C363.377 25.2557 363.54 25.2048 363.707 25.2048C363.931 25.2048 364.146 25.2962 364.304 25.4587C364.462 25.6213 364.551 25.8418 364.551 26.0717Z" fill="#3526E5"/>
</g>
<g opacity="0.3">
<path d="M367.429 26.0717C367.429 26.3016 367.34 26.5221 367.182 26.6847C367.024 26.8473 366.809 26.9386 366.585 26.9386C366.361 26.9386 366.147 26.8473 365.989 26.6847C365.83 26.5221 365.742 26.3016 365.742 26.0717C365.742 25.8418 365.83 25.6213 365.989 25.4587C366.147 25.2962 366.361 25.2048 366.585 25.2048C366.809 25.2048 367.024 25.2962 367.182 25.4587C367.34 25.6213 367.429 25.8418 367.429 26.0717Z" fill="#3526E5"/>
</g>
<g opacity="0.3">
<path d="M370.273 26.0717C370.273 26.2432 370.223 26.4108 370.131 26.5534C370.038 26.6959 369.906 26.807 369.752 26.8726C369.598 26.9382 369.428 26.9554 369.265 26.922C369.101 26.8885 368.951 26.806 368.833 26.6847C368.715 26.5635 368.634 26.409 368.602 26.2408C368.569 26.0727 368.586 25.8984 368.65 25.74C368.714 25.5816 368.822 25.4462 368.961 25.3509C369.099 25.2557 369.262 25.2048 369.429 25.2048C369.653 25.2048 369.868 25.2962 370.026 25.4587C370.184 25.6213 370.273 25.8418 370.273 26.0717Z" fill="#3526E5"/>
</g>
<g opacity="0.3">
<path d="M397.43 36.8503H369.43V65.6218H397.43V36.8503Z" fill="#3526E5"/>
</g>
<path d="M467.483 44.5592C467.483 44.6632 453.069 44.7499 435.305 44.7499C417.541 44.7499 403.127 44.6632 403.127 44.5592C403.127 44.4551 417.532 44.3684 435.305 44.3684C453.078 44.3684 467.483 44.4551 467.483 44.5592Z" fill="#3526E5"/>
<path d="M467.483 50.4208C467.483 50.5248 453.069 50.6115 435.305 50.6115C417.541 50.6115 403.127 50.5248 403.127 50.4208C403.127 50.3167 417.532 50.23 435.305 50.23C453.078 50.23 467.483 50.308 467.483 50.4208Z" fill="#3526E5"/>
<path d="M444.554 56.2828C444.414 56.2977 444.273 56.2977 444.132 56.2828H442.926L438.487 56.3435L423.836 56.4042L409.195 56.3781L404.756 56.3174H403.54C403.403 56.3321 403.264 56.3321 403.127 56.3174C403.264 56.2972 403.403 56.2972 403.54 56.3174H404.756L409.195 56.2568L423.836 56.196L438.487 56.2568L442.926 56.3174H444.132C444.271 56.2854 444.413 56.2737 444.554 56.2828Z" fill="#3526E5"/>
<path d="M425.093 70.9547H424.427H422.469L414.874 70.8941L386.426 70.5819H386.527L372.712 84.1959L372.434 84.4733V84.0745C372.434 79.9729 372.434 75.5852 372.434 71.0241L372.611 71.2062H359.505L359.446 71.1542L359.277 70.9721L359.218 70.9114V70.8333C359.218 56.0921 359.218 39.6859 359.218 22.2739V22.0571H400.823L475.66 22.1178H475.863V22.3259C475.795 40.4837 475.736 56.8291 475.694 70.8854V71.0415H475.5H438.604H428.579H425.971C425.38 71.0415 425.085 71.0415 425.085 71.0415H425.971H428.579L438.604 70.9894L475.483 70.816L475.34 70.9721C475.34 56.9592 475.39 40.6224 475.424 22.456L475.618 22.6641H400.78H359.387L359.606 22.4473C359.606 39.868 359.606 56.2655 359.606 71.0068L359.547 70.868L359.724 71.0501L359.589 70.9981H372.78V71.1802C372.78 75.7413 372.78 80.129 372.78 84.2305L372.501 84.1091L386.367 70.5038L386.409 70.4605H386.468L414.908 70.9027L422.503 71.0415L424.452 71.0848L425.093 70.9547Z" fill="#3526E5"/>
<path d="M84.2704 282.25H93.6575V313.133H84.2704V282.25Z" fill="#263238"/>
<g opacity="0.2">
<path d="M84.2704 282.25H93.6575V313.133H84.2704V282.25Z" fill="white"/>
</g>
<path d="M89.0893 287.209C103.698 287.213 118.081 283.601 130.955 276.696L126.512 268.42C112.564 275.873 96.7113 279.003 80.9766 277.41C65.242 275.817 50.3385 269.573 38.1671 259.475C25.9958 249.377 17.1083 235.882 12.6384 220.712C8.16844 205.541 8.3187 189.383 13.07 174.299C15.5881 166.212 19.403 158.587 24.3657 151.723C31.4679 141.863 40.7243 133.751 51.4316 128.005L47.0041 119.729C42.0653 122.383 37.383 125.489 33.0174 129.007C26.8496 133.991 21.3773 139.779 16.7466 146.216C11.1954 153.892 6.93108 162.421 4.12095 171.467C-0.0859571 184.807 -1.08946 198.951 1.1918 212.752C3.47307 226.552 8.97489 239.621 17.2511 250.897C25.5272 262.174 36.3447 271.341 48.8261 277.656C61.3076 283.97 75.1015 287.254 89.0893 287.241V287.209Z" fill="#263238"/>
<g opacity="0.3">
<path d="M89.0893 287.209C103.698 287.213 118.081 283.601 130.955 276.696L126.512 268.42C112.564 275.873 96.7113 279.003 80.9766 277.41C65.242 275.817 50.3385 269.573 38.1671 259.475C25.9958 249.377 17.1083 235.882 12.6384 220.712C8.16844 205.541 8.3187 189.383 13.07 174.299C15.5881 166.212 19.403 158.587 24.3657 151.723C31.4679 141.863 40.7243 133.751 51.4316 128.005L47.0041 119.729C42.0653 122.383 37.383 125.489 33.0174 129.007C26.8496 133.991 21.3773 139.779 16.7466 146.216C11.1954 153.892 6.93108 162.421 4.12095 171.467C-0.0859571 184.807 -1.08946 198.951 1.1918 212.752C3.47307 226.552 8.97489 239.621 17.2511 250.897C25.5272 262.174 36.3447 271.341 48.8261 277.656C61.3076 283.97 75.1015 287.254 89.0893 287.241V287.209Z" fill="white"/>
</g>
<path d="M133.975 284.518C134.363 284.523 134.746 284.426 135.086 284.237C135.621 283.942 136.02 283.45 136.198 282.866C136.376 282.282 136.32 281.651 136.04 281.108L46.0184 113.174C45.8735 112.901 45.6764 112.66 45.4385 112.464C45.2005 112.268 44.9262 112.121 44.6313 112.031C44.3364 111.941 44.0266 111.91 43.7197 111.939C43.4128 111.969 43.1146 112.059 42.8424 112.204C42.5702 112.349 42.3291 112.546 42.1331 112.784C41.937 113.022 41.7897 113.296 41.6996 113.591C41.6096 113.886 41.5785 114.195 41.6081 114.502C41.6378 114.809 41.7276 115.107 41.8724 115.38L131.91 283.251C132.108 283.629 132.404 283.946 132.768 284.17C133.131 284.393 133.548 284.513 133.975 284.518Z" fill="#263238"/>
<g opacity="0.4">
<path d="M133.975 284.518C134.363 284.523 134.746 284.426 135.086 284.237C135.621 283.942 136.02 283.45 136.198 282.866C136.376 282.282 136.32 281.651 136.04 281.108L46.0184 113.174C45.8735 112.901 45.6764 112.66 45.4385 112.464C45.2005 112.268 44.9262 112.121 44.6313 112.031C44.3364 111.941 44.0266 111.91 43.7197 111.939C43.4128 111.969 43.1146 112.059 42.8424 112.204C42.5702 112.349 42.3291 112.546 42.1331 112.784C41.937 113.022 41.7897 113.296 41.6996 113.591C41.6096 113.886 41.5785 114.195 41.6081 114.502C41.6378 114.809 41.7276 115.107 41.8724 115.38L131.91 283.251C132.108 283.629 132.404 283.946 132.768 284.17C133.131 284.393 133.548 284.513 133.975 284.518Z" fill="white"/>
</g>
<path d="M106.126 310.849H71.8012C70.6974 310.849 69.6389 311.287 68.8585 312.068C68.078 312.848 67.6396 313.906 67.6396 315.01V322.676H110.272V315.01C110.272 313.909 109.836 312.853 109.059 312.073C108.282 311.293 107.227 310.853 106.126 310.849Z" fill="#263238"/>
<path d="M85.444 129.648C71.8837 130.343 58.8342 135.045 47.9458 143.157C37.0574 151.269 28.8191 162.428 24.2728 175.222C19.7265 188.016 19.0763 201.872 22.4044 215.035C25.7326 228.199 32.8897 240.081 42.9706 249.177C53.0514 258.273 65.6033 264.175 79.0388 266.138C92.4744 268.1 106.19 266.034 118.451 260.202C130.713 254.369 140.969 245.031 147.924 233.369C154.878 221.707 158.218 208.245 157.521 194.684C156.586 176.502 148.468 159.436 134.951 147.24C121.434 135.043 103.626 128.715 85.444 129.648Z" fill="#3426D7"/>
<path opacity="0.2" d="M20.4075 201.725C21.1393 216.05 26.3438 229.785 35.2887 240.998C44.2336 252.211 56.4688 260.337 70.273 264.234C84.0772 268.13 98.7558 267.601 112.244 262.721C125.731 257.84 137.35 248.854 145.464 237.026C153.578 225.198 157.78 211.124 157.479 196.783C157.177 182.443 152.387 168.558 143.783 157.081C135.179 145.605 123.193 137.115 109.512 132.806C95.8308 128.497 81.143 128.585 67.5147 133.059C60.5701 135.329 54.0397 138.71 48.1775 143.071C39.0604 149.79 31.7516 158.665 26.9053 168.901C22.059 179.136 19.8265 190.414 20.4075 201.725Z" fill="white"/>
<path opacity="0.5" d="M48.976 142.445C49.0806 142.392 49.1802 142.329 49.2733 142.258C49.464 142.092 49.6742 141.95 49.8991 141.835C52.7465 140.271 51.9486 145.794 54.5926 147.045C57.2366 148.297 61.8988 146.044 61.3356 144.417C60.7724 142.79 66.123 138.268 67.5936 137.549C68.2859 137.3 69.0278 137.222 69.7567 137.32C70.4856 137.419 71.1801 137.691 71.7815 138.115C72.3829 138.538 72.8736 139.1 73.2121 139.753C73.5506 140.406 73.7271 141.131 73.7265 141.867C73.9455 146.56 71.3641 149.345 72.0838 150.769C72.8034 152.192 72.7878 152.63 77.5282 154.899C82.2687 157.167 85.695 154.273 88.558 156.855C91.4211 159.436 87.7132 160.875 88.8553 167.133C89.9974 173.391 91.687 168.901 95.1133 169.574C98.5396 170.247 96.5839 166.116 96.1459 163.707C95.7078 161.298 99.2749 160.578 100.839 160.39C102.404 160.203 106.315 159.733 105.814 154.883C105.314 150.033 105.564 145.496 112.213 145.872C115.64 146.091 117.501 141.178 118.471 136.234C127.151 140.37 134.867 146.278 141.124 153.578C147.381 160.878 152.039 169.407 154.799 178.617C154.439 178.539 154.126 179.039 153.626 180.291C152.061 184.202 150.606 188.113 148.619 190.491C147.741 191.43 147.133 192.588 146.857 193.844C146.582 195.099 146.65 196.406 147.055 197.626C147.884 199.55 151.92 200.755 151.999 202.084C152.077 203.414 155.863 205.213 156.458 206.434C156.508 206.569 156.6 206.685 156.721 206.764C156.843 206.843 156.986 206.881 157.13 206.872C155.948 216.193 152.858 225.172 148.054 233.247C143.249 241.322 136.832 248.321 129.204 253.807C127.499 249.364 124.51 245.844 122.508 245.734C118.315 245.515 105.376 243.466 110.133 237.755C114.889 232.045 119.973 226.804 119.973 226.804C118.978 225.299 117.858 223.881 116.625 222.564C115.859 222.079 118.346 220.655 113.981 220.186C109.616 219.716 109.288 219.685 111.118 217.589C112.949 215.492 115.968 217.088 113.966 214.46C111.963 211.831 109.773 209.766 107.614 212.676C105.455 215.586 106.769 217.135 106.049 217.995C105.329 218.856 98.8681 217.526 98.8681 217.526C98.8681 217.526 97.1941 219.857 97.9138 220.373C99.0995 221.758 100.182 223.227 101.152 224.77C101.675 226.231 102.526 227.553 103.64 228.634C104.954 229.401 100.041 234.391 98.5708 235.158C97.1002 235.925 96.4901 236.55 95.2228 236.222C93.9556 235.893 91.4993 233.249 90.6075 232.451C89.7157 231.654 84.3495 233.609 84.3495 233.609C82.3347 234.777 80.4425 236.145 78.7016 237.693C77.8357 238.552 76.7047 239.094 75.4921 239.231C74.2795 239.367 73.0563 239.09 72.0212 238.443C70.9104 237.442 70.973 234.72 68.8922 235.659C66.8114 236.597 66.1074 237.567 64.668 242.621C63.2287 247.674 54.6708 255.09 55.7347 258.219C49.4066 254.734 43.676 250.261 38.7598 244.967C44.8144 242.949 47.0673 240.618 47.9747 239.288C49.1481 237.552 48.4597 237.536 47.8026 234.595C47.1455 231.654 41.6228 229.901 40.7311 229.103C39.8393 228.306 35.5369 222.955 33.4249 222.392C31.3128 221.828 31.4692 219.012 31.4692 219.012C31.4692 219.012 31.0781 219.748 30.2176 217.886C29.3571 216.024 30.2958 214.115 27.4484 211.534C25.6095 210.128 23.4658 209.174 21.1904 208.749C20.8169 206.391 20.5714 204.015 20.4551 201.631C20.2342 197.452 20.4018 193.262 20.9557 189.115L28.4028 191.946C30.1475 191.977 31.8901 191.809 33.5969 191.446C34.4105 190.976 38.2905 188.473 41.2943 190.006C44.2982 191.54 44.5954 188.989 50.2276 188.066C55.8598 187.143 47.4584 179.18 46.1442 177.991C44.8301 176.802 44.5798 177.428 40.778 175.535C36.9763 173.642 37.649 170.7 37.649 170.7C39.9538 167.358 42.6597 164.31 45.7062 161.626C49.3984 158.716 44.1417 158.419 34.9894 155.775C38.9933 150.689 43.703 146.2 48.976 142.445ZM74.0081 229.276C75.3223 231.262 77.1371 228.884 77.1371 228.884C82.4721 227.32 82.9884 222.986 81.1735 221.343C79.3587 219.701 78.467 214.1 75.6196 216.337C73.3244 218.047 70.9262 219.615 68.4384 221.031C68.4384 221.031 65.3094 212.958 65.1686 220.467C65.0278 227.977 60.7567 225.693 65.0748 227.993C69.3928 230.292 72.6626 227.242 73.9768 229.229L74.0081 229.276ZM53.1532 231.309C53.1286 233.227 53.3441 235.14 53.7947 237.004L57.7998 239.054C60.788 236.566 59.6303 232.796 58.0032 232.451C56.3761 232.107 53.341 229.103 53.1063 231.262L53.1532 231.309ZM60.4908 173.298C59.4426 175.347 62.6342 176.677 66.1699 181.855C69.7057 187.034 71.8804 182.81 71.8804 182.81C71.8804 182.81 79.0458 177.084 76.7147 174.58C74.3836 172.077 76.1358 168.776 72.6939 166.867C70.5505 165.678 68.4228 166.711 66.4359 168.917C64.449 171.123 61.4921 171.217 60.4595 173.251L60.4908 173.298Z" fill="white"/>
<path opacity="0.2" d="M67.5141 133.058C66.5284 153.71 73.1463 176.004 87.6649 195.154C103.732 216.353 126.136 229.276 148.462 232.53C155.38 220.483 158.483 206.622 157.36 192.775C156.238 178.929 150.943 165.749 142.175 154.974C133.406 144.199 121.577 136.336 108.247 132.423C94.9177 128.511 80.7151 128.732 67.5141 133.058Z" fill="white"/>
<g opacity="0.3">
<path d="M106.126 310.849H71.8012C70.6974 310.849 69.6389 311.287 68.8585 312.068C68.078 312.848 67.6396 313.906 67.6396 315.01V322.676H110.272V315.01C110.272 313.909 109.836 312.853 109.059 312.073C108.282 311.293 107.227 310.853 106.126 310.849Z" fill="white"/>
</g>
<path d="M124.651 320.424H53.2778C51.9915 320.424 50.7579 320.935 49.8484 321.844C48.9388 322.754 48.4279 323.987 48.4279 325.274V333.237H129.5V325.274C129.5 323.987 128.99 322.754 128.08 321.844C127.17 320.935 125.937 320.424 124.651 320.424Z" fill="#263238"/>
<g opacity="0.4">
<path d="M124.651 320.424H53.2778C51.9915 320.424 50.7579 320.935 49.8484 321.844C48.9388 322.754 48.4279 323.987 48.4279 325.274V333.237H129.5V325.274C129.5 323.987 128.99 322.754 128.08 321.844C127.17 320.935 125.937 320.424 124.651 320.424Z" fill="white"/>
</g>
<path d="M438.842 139.798C434.528 175.901 411.33 182.479 407.422 192.036C405.447 198.091 403.819 204.254 402.546 210.494H364.819C363.591 204.246 361.995 198.077 360.04 192.017C356.17 182.343 332.953 175.688 328.89 139.585C326.182 115.846 344.097 78.4469 384.011 78.5436C423.925 78.6404 441.648 116.097 438.842 139.798Z" fill="#FFAD33"/>
<path d="M364.322 152.755L362.419 153.106L373.47 213.139L375.373 212.788L364.322 152.755Z" fill="white"/>
<path d="M403.311 152.816L391.989 212.798L393.89 213.157L405.213 153.175L403.311 152.816Z" fill="white"/>
<path d="M383.877 172.921C380.936 172.921 377.956 170.561 375.499 166.285C375.383 166.091 375.267 165.898 375.17 165.704C374.783 166.206 374.296 166.621 373.74 166.924C373.184 167.228 372.571 167.412 371.939 167.465C366.29 167.465 364.046 155.856 363.968 155.295L364.916 155.121C364.916 155.237 367.083 166.478 371.939 166.498C372.496 166.424 373.03 166.23 373.505 165.93C373.979 165.629 374.383 165.228 374.687 164.756C372.307 159.861 370.991 153.438 372.752 150.516C373.003 150.045 373.38 149.652 373.841 149.382C374.302 149.112 374.83 148.976 375.364 148.988C375.997 148.965 376.624 149.12 377.175 149.434C377.725 149.749 378.177 150.211 378.479 150.768C380.181 153.728 378.924 159.823 376.679 163.692C376.446 164.101 376.188 164.495 375.906 164.872C376.06 165.201 376.235 165.491 376.409 165.801C377.724 168.103 380.452 171.954 383.954 171.954C386.295 171.954 388.636 170.019 390.59 166.768L391.055 165.936C390.544 165.339 390.097 164.691 389.72 164.002C387.398 159.939 386.914 153.922 388.694 150.865C388.976 150.292 389.411 149.808 389.95 149.466C390.49 149.125 391.113 148.939 391.751 148.93C392.246 148.929 392.73 149.066 393.151 149.326C393.571 149.585 393.911 149.958 394.131 150.4C395.795 153.302 394.866 160.21 392.196 165.646C392.704 166.154 393.307 166.556 393.972 166.828C394.636 167.1 395.348 167.238 396.066 167.233C399.51 167.233 402.586 158.991 403.476 155.818L404.405 156.089C404.269 156.572 400.961 168.2 396.066 168.2C394.498 168.198 392.988 167.611 391.829 166.556L391.48 167.175C389.681 169.787 387.263 172.921 383.877 172.921ZM391.616 149.994C391.149 150.002 390.693 150.141 390.3 150.394C389.907 150.647 389.592 151.004 389.391 151.426C387.804 154.173 388.288 159.861 390.416 163.595C390.704 164.083 391.027 164.549 391.384 164.988C393.744 159.919 394.634 153.535 393.164 150.981C393.025 150.687 392.806 150.439 392.532 150.264C392.258 150.089 391.941 149.996 391.616 149.994ZM375.209 149.994C374.844 149.982 374.483 150.074 374.168 150.259C373.853 150.444 373.597 150.714 373.429 151.039C372.094 153.361 372.965 159.01 375.364 163.924L375.79 163.247C377.84 159.687 379.098 153.902 377.589 151.29C377.372 150.879 377.041 150.538 376.637 150.309C376.232 150.079 375.77 149.97 375.306 149.994H375.209Z" fill="white"/>
<path d="M406.955 209.014L360.424 208.9L360.402 217.994L406.933 218.107L406.955 209.014Z" fill="#1B1A5D"/>
<path d="M406.911 219.578L360.38 219.464L360.358 228.557L406.889 228.671L406.911 219.578Z" fill="#1B1A5D"/>
<path d="M406.933 230.011L360.402 229.905L360.382 238.999L406.912 239.104L406.933 230.011Z" fill="#1B1A5D"/>
<path d="M385.813 48.884C387.026 53.832 386.946 59.0089 385.581 63.9171C384.927 61.4641 384.64 58.9279 384.729 56.3909C384.727 53.8495 385.092 51.3211 385.813 48.884Z" fill="#0C1945"/>
<path d="M343.537 59.196C345.329 61.0038 346.847 63.0634 348.045 65.3099C349.32 67.5094 350.271 69.8813 350.869 72.3524C349.079 70.5506 347.56 68.4975 346.361 66.2579C345.088 64.0508 344.136 61.6727 343.537 59.196Z" fill="#0C1945"/>
<path d="M312.175 89.2236C317.074 90.643 321.52 93.3096 325.08 96.9627C320.189 95.5232 315.748 92.8595 312.175 89.2236Z" fill="#0C1945"/>
<path d="M300.005 130.898C304.953 129.685 310.13 129.765 315.038 131.13C312.585 131.784 310.049 132.071 307.511 131.982C304.97 131.984 302.442 131.619 300.005 130.898Z" fill="#0C1945"/>
<path d="M310.356 173.076C314.043 169.562 318.564 167.045 323.493 165.763C319.82 169.295 315.293 171.814 310.356 173.076Z" fill="#0C1945"/>
<path d="M455.579 176.288C450.68 174.868 446.233 172.202 442.674 168.549C447.564 169.988 452.006 172.652 455.579 176.288Z" fill="#0C1945"/>
<path d="M467.748 134.613C462.8 135.826 457.623 135.746 452.715 134.381C455.168 133.727 457.704 133.44 460.241 133.53C462.782 133.527 465.311 133.892 467.748 134.613Z" fill="#0C1945"/>
<path d="M457.397 92.3965C455.595 94.1871 453.542 95.7057 451.303 96.9045C449.103 98.1797 446.731 99.131 444.26 99.7292C446.062 97.9386 448.115 96.42 450.355 95.2212C452.556 93.9492 454.927 92.998 457.397 92.3965Z" fill="#0C1945"/>
<path d="M427.408 61.0535C425.989 65.9524 423.322 70.399 419.669 73.9583C421.108 69.0682 423.772 64.6264 427.408 61.0535Z" fill="#0C1945"/>
</g>
<defs>
<clipPath id="clip0_19_265">
<rect width="840" height="334" fill="white"/>
</clipPath>
</defs>
</svg>
